<svg xmlns="http://www.w3.org/2000/svg" viewBox="0 0 167.633 78.494"><defs><style>.a{fill:#fff;}.b{fill:#536db5;}.c{fill:#54656c;}</style></defs><path class="a" d="M48.283,21.315A20.858,20.858,0,1,0,34.424,47.366l.034-.01A20.879,20.879,0,0,0,48.283,21.315Z" transform="translate(-7.451 -6.534)"/><path class="b" d="M48.283,21.315A20.868,20.868,0,1,0,34.416,47.366l.035-.01A20.878,20.878,0,0,0,48.283,21.315Z" transform="translate(-7.451 -6.534)"/><path class="c" d="M67.307,35.868h1.071a2.65,2.65,0,0,0,1.072-.189,1.836,1.836,0,0,0,.731-.6l6.786-9.1a2.513,2.513,0,0,1,.893-.8,2.726,2.726,0,0,1,1.182-.225h3.946L74.705,35.778a4.683,4.683,0,0,1-1.513,1.406,3.447,3.447,0,0,1,1.012.6,4.71,4.71,0,0,1,.858,1.019L83.6,51.013H79.57a2.4,2.4,0,0,1-1.217-.244,1.968,1.968,0,0,1-.671-.713L70.726,40.43a1.863,1.863,0,0,0-.749-.686,2.987,2.987,0,0,0-1.224-.2H67.307V51.013H62.732V24.943h4.575Z" transform="translate(-7.451 -6.534)"/><path class="c" d="M104.877,51.013h-4.133a1.8,1.8,0,0,1-1.7-.974l-5.17-8.348a1.877,1.877,0,0,0-.638-.667,2.126,2.126,0,0,0-1.029-.2H90.25V51.013H85.675V24.943h7.5a14.745,14.745,0,0,1,4.294.55,8.047,8.047,0,0,1,2.943,1.542,6.014,6.014,0,0,1,1.692,2.37,8.206,8.206,0,0,1,.544,3.038,8.332,8.332,0,0,1-.365,2.488,7.4,7.4,0,0,1-1.055,2.127,7.306,7.306,0,0,1-1.7,1.677,8.309,8.309,0,0,1-2.3,1.135,4.6,4.6,0,0,1,.816.641,4.516,4.516,0,0,1,.68.874ZM93.108,37.347A6.717,6.717,0,0,0,95.361,37a4.291,4.291,0,0,0,1.582-.947,3.807,3.807,0,0,0,.927-1.433,5.215,5.215,0,0,0,.306-1.82,3.8,3.8,0,0,0-1.233-3.047,5.657,5.657,0,0,0-3.767-1.064H90.25v8.654Z" transform="translate(-7.451 -6.534)"/><path class="c" d="M111.765,51.013h-4.592V24.943h4.592Z" transform="translate(-7.451 -6.534)"/><path class="c" d="M129.98,29.684a1.646,1.646,0,0,1-.434.55.921.921,0,0,1-.57.172,1.406,1.406,0,0,1-.773-.28q-.417-.279-1-.622a8.07,8.07,0,0,0-1.353-.622,5.389,5.389,0,0,0-1.828-.279,5.179,5.179,0,0,0-1.667.243,3.461,3.461,0,0,0-1.2.676,2.712,2.712,0,0,0-.723,1.037,3.581,3.581,0,0,0-.238,1.325,2.392,2.392,0,0,0,.485,1.532,4.074,4.074,0,0,0,1.284,1.046,11.564,11.564,0,0,0,1.82.775q1.02.343,2.092.731a18.93,18.93,0,0,1,2.093.9,7.214,7.214,0,0,1,1.819,1.3,5.891,5.891,0,0,1,1.284,1.92,7.023,7.023,0,0,1,.484,2.759,9.467,9.467,0,0,1-.57,3.308,7.665,7.665,0,0,1-1.666,2.686,7.794,7.794,0,0,1-2.679,1.8,9.357,9.357,0,0,1-3.623.659,11,11,0,0,1-2.313-.244,11.611,11.611,0,0,1-2.185-.694,11.476,11.476,0,0,1-1.965-1.082,9.6,9.6,0,0,1-1.632-1.405l1.343-2.326a1.473,1.473,0,0,1,.443-.424,1.067,1.067,0,0,1,.578-.171,1.57,1.57,0,0,1,.918.369q.494.37,1.174.82a8.968,8.968,0,0,0,1.59.821,5.788,5.788,0,0,0,2.186.37,4.313,4.313,0,0,0,3.027-.983,3.637,3.637,0,0,0,1.072-2.822,2.724,2.724,0,0,0-.485-1.676,3.964,3.964,0,0,0-1.284-1.091,9.289,9.289,0,0,0-1.82-.748q-1.02-.307-2.075-.667a17.31,17.31,0,0,1-2.075-.866,6.713,6.713,0,0,1-1.82-1.316,6.01,6.01,0,0,1-1.284-2.028,8.145,8.145,0,0,1-.485-3,7.481,7.481,0,0,1,.536-2.777,7.212,7.212,0,0,1,1.556-2.4,7.574,7.574,0,0,1,2.517-1.676,8.778,8.778,0,0,1,3.436-.631,10.881,10.881,0,0,1,4.014.721,8.983,8.983,0,0,1,3.129,2.019Z" transform="translate(-7.451 -6.534)"/><path class="c" d="M139.759,28.8v7.23h8.606v3.732h-8.606v7.374h10.919v3.876H135.167V24.943h15.511V28.8Z" transform="translate(-7.451 -6.534)"/><path class="c" d="M175.084,24.943v26.07h-2.347a1.968,1.968,0,0,1-.91-.19,2.169,2.169,0,0,1-.706-.64L158.28,32.8q.1,1.189.1,2.2v16.01h-4.032V24.943h2.4a4.043,4.043,0,0,1,.5.027,1.175,1.175,0,0,1,.375.108,1.243,1.243,0,0,1,.314.235,3.728,3.728,0,0,1,.34.405L171.172,43.17q-.049-.63-.085-1.244c-.023-.409-.033-.787-.033-1.136V24.943Z" transform="translate(-7.451 -6.534)"/><path class="c" d="M67.324,62.817v7.23H75.93v3.731H67.324v7.374H78.243v3.876H62.732V58.96H78.243v3.857Z" transform="translate(-7.451 -6.534)"/><path class="c" d="M101.118,85.028H96.985a1.79,1.79,0,0,1-1.7-.973l-5.171-8.347a1.86,1.86,0,0,0-.638-.667,2.113,2.113,0,0,0-1.028-.2H86.492V85.028H81.916V58.96h7.5a14.711,14.711,0,0,1,4.294.55,8.03,8.03,0,0,1,2.943,1.541,6.014,6.014,0,0,1,1.692,2.37,8.206,8.206,0,0,1,.544,3.038,8.327,8.327,0,0,1-.365,2.488,7.37,7.37,0,0,1-1.055,2.127,7.267,7.267,0,0,1-1.7,1.677,8.353,8.353,0,0,1-2.3,1.136,4.473,4.473,0,0,1,.816.639,4.523,4.523,0,0,1,.68.875ZM89.349,71.363A6.692,6.692,0,0,0,91.6,71.02a4.3,4.3,0,0,0,1.582-.946,3.818,3.818,0,0,0,.927-1.434,5.221,5.221,0,0,0,.306-1.821,3.808,3.808,0,0,0-1.233-3.047,5.657,5.657,0,0,0-3.767-1.063H86.492v8.654Z" transform="translate(-7.451 -6.534)"/><path class="c" d="M124.147,58.96V85.028H121.8a1.969,1.969,0,0,1-.91-.189,2.158,2.158,0,0,1-.706-.64l-12.841-17.38q.1,1.191.1,2.2V85.028h-4.031V58.96h2.4a4.274,4.274,0,0,1,.5.026,1.179,1.179,0,0,1,.374.109,1.2,1.2,0,0,1,.315.234,3.728,3.728,0,0,1,.34.405l12.892,17.451q-.051-.63-.085-1.243c-.023-.409-.034-.787-.034-1.136V58.96Z" transform="translate(-7.451 -6.534)"/><path class="c" d="M133.841,85.028h-4.592V58.96h4.592Z" transform="translate(-7.451 -6.534)"/><path class="c" d="M143.552,62.817v7.23h8.606v3.731h-8.606v7.374h10.919v3.876H138.96V58.96h15.511v3.857Z" transform="translate(-7.451 -6.534)"/></svg>