<svg xmlns="http://www.w3.org/2000/svg" viewBox="0 0 390.6043 174.1269"><title>Original - schmaler rand</title><path d="M190.4471,26.173A23.5223,23.5223,0,1,0,174.83,55.5444a23.5227,23.5227,0,0,0,15.617-29.3714Z" transform="translate(-6.9628 -9.5219)" style="fill:#efd84d"/><path d="M155.2741,70.653a21.248,21.248,0,0,0-26.931,13.3326c-.065.1928-7.821,20.1141-36.904,38.3871-28.485,17.895-51.6763,18.605-58.5831,18.348-1.1964-.044-2.7333-.184-3.19-.216a21.34,21.34,0,0,0-5.2469,42.277c3.5749.648,36.1787,5.648,79.5887-18.325,1.267-.7,7.754-4.665,10.039-6.1,41.989-26.382,53.397-57.332,54.56-60.774a21.2484,21.2484,0,0,0-13.333-26.93Z" transform="translate(-6.9628 -9.5219)" style="fill:#efd84d"/><path d="M210.6251,161.5627v1.298h13.526l-13.74,19.191a.9368.9368,0,0,0-.183.549v.565h15.877v-1.298h-13.801l13.71-19.145a1.082,1.082,0,0,0,.214-.626v-.534Zm25.079,19.939a5.9755,5.9755,0,0,1-2.077-1.512,6.6771,6.6771,0,0,1-1.297-2.267,8.559,8.559,0,0,1-.451-2.817v-13.343h-1.572v13.359a9.6565,9.6565,0,0,0,.565,3.336,7.9509,7.9509,0,0,0,1.6259,2.702,7.4794,7.4794,0,0,0,2.58,1.809,9.1883,9.1883,0,0,0,6.824,0,7.4781,7.4781,0,0,0,2.58-1.809,7.95,7.95,0,0,0,1.626-2.702,9.6589,9.6589,0,0,0,.565-3.336v-13.359h-1.557v13.359a8.5676,8.5676,0,0,1-.451,2.817,6.6218,6.6218,0,0,1-1.305,2.267,5.9883,5.9883,0,0,1-2.084,1.504,6.8421,6.8421,0,0,1-2.786.542,6.7612,6.7612,0,0,1-2.786-.55Zm23.396-19.939v21.603h12.947v-1.298h-11.374v-9.007h9.465v-1.267h-9.465v-8.733h11.374v-1.298Zm21.881,11.832a2.3364,2.3364,0,0,1,.923.137,1.5344,1.5344,0,0,1,.557.474l6.916,8.763a1.0942,1.0942,0,0,0,.344.305.8979.8979,0,0,0,.42.092H291.5l-7.436-9.343a2.4675,2.4675,0,0,0-.656-.611,8.6016,8.6016,0,0,0,2.55-.649,6.556,6.556,0,0,0,1.931-1.267,5.3042,5.3042,0,0,0,1.229-1.794,5.8042,5.8042,0,0,0,.427-2.26,5.05,5.05,0,0,0-1.847-4.236,9,9,0,0,0-5.5881-1.443h-5.5109v21.603h1.557v-9.771Zm-2.825-10.595H282.11a7.3371,7.3371,0,0,1,4.3971,1.114,3.9693,3.9693,0,0,1,1.512,3.42,4.8272,4.8272,0,0,1-.413,2.031,4.24,4.24,0,0,1-1.198,1.541,5.5322,5.5322,0,0,1-1.924.985,8.8909,8.8909,0,0,1-2.572.344h-3.756V162.8Zm18.653-1.237H295.252v21.603h11.8021v-1.328h-10.245v-20.275Zm13.945,0v21.603h12.947v-1.298h-11.374v-9.007h9.465v-1.267h-9.465v-8.733h11.374v-1.298Zm24.284,21.603a10.7916,10.7916,0,0,0,3.083-.405,6.4584,6.4584,0,0,0,2.291-1.168,4.9936,4.9936,0,0,0,1.419-1.862,6.0215,6.0215,0,0,0,.489-2.473,4.573,4.573,0,0,0-1.374-3.466,7.04,7.04,0,0,0-3.924-1.695,6.6407,6.6407,0,0,0,1.87-.755,5.55,5.55,0,0,0,1.3819-1.168,4.9942,4.9942,0,0,0,.8631-1.466,4.6675,4.6675,0,0,0,.297-1.649,5.877,5.877,0,0,0-.435-2.32,4.4,4.4,0,0,0-1.32-1.733,6.0754,6.0754,0,0,0-2.237-1.077,12.33,12.33,0,0,0-3.198-.366H328.03v21.603Zm-.016-10.351a8.8724,8.8724,0,0,1,2.428.305,5.2211,5.2211,0,0,1,1.801.878,3.8382,3.8382,0,0,1,1.122,1.389,4.2194,4.2194,0,0,1,.39,1.84,4.2842,4.2842,0,0,1-1.451,3.458,6.51,6.51,0,0,1-4.305,1.229h-5.42v-9.099Zm-5.435-10.015h4.657a6.7062,6.7062,0,0,1,4.2669,1.122,4.0074,4.0074,0,0,1,1.3811,3.305,4.3193,4.3193,0,0,1-.32,1.634,3.9244,3.9244,0,0,1-1,1.42,5.054,5.054,0,0,1-1.741,1.007,7.5641,7.5641,0,0,1-2.5571.382h-4.6869V162.8Zm17.801-1.237v21.603h12.947v-1.298h-11.374v-9.007h9.465v-1.267h-9.465v-8.733h11.374v-1.298Zm18.04,0h-.764v21.603h1.359v-18.183a8.6127,8.6127,0,0,0-.046-.87l14.046,18.748a.66.66,0,0,0,.565.305h.748v-21.603h-1.374v18.122a8.7863,8.7863,0,0,0,.046.886l-13.985-18.718a.7231.7231,0,0,0-.26-.237.8652.8652,0,0,0-.335-.053Z" transform="translate(-6.9628 -9.5219)" style="fill:#717e84"/><path d="M215.541,151.6807H216.93l6.397-18.748a7.9928,7.9928,0,0,0,.213-.779c.062.275.133.534.214.779l6.3819,18.748H231.54l6.7939-21.603h-1.1909a.5974.5974,0,0,0-.374.122.5473.5473,0,0,0-.206.29l-5.45,17.755a5.8823,5.8823,0,0,0-.153.649q-.06.3435-.137.71c-.051-.254-.105-.493-.16-.717s-.12-.438-.1911-.642l-6.1069-17.755a.7568.7568,0,0,0-.214-.298.5309.5309,0,0,0-.351-.114h-.427a.5661.5661,0,0,0-.367.122.6539.6539,0,0,0-.214.29l-6.106,17.755a5.4821,5.4821,0,0,0-.1841.657q-.0764.351-.1519.733c-.051-.255-.1-.499-.145-.733s-.1-.453-.161-.657l-5.45-17.755a.5339.5339,0,0,0-.565-.412h-1.298l6.81,21.603Zm32.5981-21.603h-1.557l-8.84,21.603h1.1909a.5661.5661,0,0,0,.3661-.123.6546.6546,0,0,0,.214-.29l2.534-6.274h10.611l2.55,6.274a.7477.7477,0,0,0,.213.298.5333.5333,0,0,0,.351.115h1.207l-8.84-21.603Zm-1.206,2.855q.1065-.276.213-.603.108-.3285.214-.695c.071.244.143.476.214.695s.142.414.214.587l4.412,10.916h-9.679l4.412-10.9Zm28.208,15.152a1.2541,1.2541,0,0,0-.145.099,10.83,10.83,0,0,1-1.297,1.039,7.5819,7.5819,0,0,1-1.42.748,8.176,8.176,0,0,1-1.672.458,12.56,12.56,0,0,1-2.069.152,8.7494,8.7494,0,0,1-3.427-.664,7.8741,7.8741,0,0,1-2.741-1.908,8.839,8.839,0,0,1-1.816-3.046,11.8923,11.8923,0,0,1-.657-4.092,11.5373,11.5373,0,0,1,.664-4.022,8.8652,8.8652,0,0,1,1.8549-3.054,8.1115,8.1115,0,0,1,2.84-1.939,9.4039,9.4039,0,0,1,3.618-.679,10.2351,10.2351,0,0,1,1.909.16,9.408,9.408,0,0,1,1.481.397,6.4664,6.4664,0,0,1,1.106.519q.4665.2835.794.519t.542.397a.6518.6518,0,0,0,.351.161.4282.4282,0,0,0,.382-.184l.473-.687a12.2742,12.2742,0,0,0-1.465-1.129,8.574,8.574,0,0,0-1.596-.817,9.865,9.865,0,0,0-1.824-.504,12.2146,12.2146,0,0,0-2.153-.176,11.1857,11.1857,0,0,0-4.297.802,9.67,9.67,0,0,0-3.344,2.259,10.22,10.22,0,0,0-2.168,3.489,12.5536,12.5536,0,0,0-.771,4.488,13.1605,13.1605,0,0,0,.748,4.55,10.24,10.24,0,0,0,2.084,3.489,9.1476,9.1476,0,0,0,3.206,2.229,10.519,10.519,0,0,0,4.115.786,12.7242,12.7242,0,0,0,2.465-.222,10.1839,10.1839,0,0,0,2.061-.625,9.1157,9.1157,0,0,0,1.733-.978,10.026,10.026,0,0,0,1.466-1.29l-.611-.656a.3541.3541,0,0,0-.259-.107.3331.3331,0,0,0-.161.038Zm21.934-18.007h-1.572v10.076h-13.527v-10.076h-1.572v21.603h1.572v-10.352h13.527v10.352h1.572v-21.603Zm17.002,1.923a7.2272,7.2272,0,0,0-2.438-1.633,8.0851,8.0851,0,0,0-3.019-.535,7.1776,7.1776,0,0,0-2.668.466,5.9434,5.9434,0,0,0-1.965,1.237,5.1921,5.1921,0,0,0-1.207,1.778,5.4532,5.4532,0,0,0-.413,2.092,5.1082,5.1082,0,0,0,.466,2.313,4.64,4.64,0,0,0,1.231,1.542,6.89,6.89,0,0,0,1.735,1.0151q.97.3973,1.995.7179t1.995.656a8.0018,8.0018,0,0,1,1.736.832,4.02,4.02,0,0,1,1.23,1.237,3.4811,3.4811,0,0,1,.4669,1.885,5.3117,5.3117,0,0,1-.3669,1.977,4.5021,4.5021,0,0,1-1.063,1.596,5.02,5.02,0,0,1-1.704,1.061,6.3523,6.3523,0,0,1-2.294.389,6.9074,6.9074,0,0,1-1.666-.183,7.0449,7.0449,0,0,1-1.3-.45,6.0293,6.0293,0,0,1-.993-.581q-.429-.312-.734-.58t-.52-.45a.6135.6135,0,0,0-.352-.183.535.535,0,0,0-.427.229l-.428.671a8.6712,8.6712,0,0,0,2.703,2.069,8.279,8.279,0,0,0,3.679.756,7.8636,7.8636,0,0,0,2.931-.512,6.3167,6.3167,0,0,0,2.168-1.397,5.9459,5.9459,0,0,0,1.351-2.083,6.99,6.99,0,0,0,.466-2.558,4.7611,4.7611,0,0,0-.466-2.221,4.6643,4.6643,0,0,0-1.231-1.504,7.2185,7.2185,0,0,0-1.735-1.015q-.972-.405-1.995-.741-1.0245-.3345-1.996-.679a7.9744,7.9744,0,0,1-1.735-.847,4.1936,4.1936,0,0,1-1.231-1.222,3.2782,3.2782,0,0,1-.4661-1.816,4.1875,4.1875,0,0,1,.3141-1.604,3.907,3.907,0,0,1,.919-1.343,4.3326,4.3326,0,0,1,1.501-.916,6.7441,6.7441,0,0,1,4.0589-.046,6.7548,6.7548,0,0,1,1.34.634,6.6278,6.6278,0,0,1,.85.626.8841.8841,0,0,0,.513.282.43.43,0,0,0,.397-.259l.367-.703Zm2.955-1.923v1.328h7.6339v20.275h1.5571v-20.275h7.588v-1.328Zm25.757,19.938a5.9793,5.9793,0,0,1-2.076-1.511,6.6792,6.6792,0,0,1-1.298-2.267,8.5851,8.5851,0,0,1-.45-2.817v-13.343h-1.573v13.358a9.6565,9.6565,0,0,0,.565,3.336,7.95,7.95,0,0,0,1.626,2.702,7.4939,7.4939,0,0,0,2.58,1.81,9.2013,9.2013,0,0,0,6.824,0,7.5074,7.5074,0,0,0,2.581-1.81,7.9813,7.9813,0,0,0,1.626-2.702,9.68,9.68,0,0,0,.564-3.336v-13.358h-1.557v13.358a8.5851,8.5851,0,0,1-.45,2.817,6.6323,6.6323,0,0,1-1.306,2.267,5.9538,5.9538,0,0,1-2.084,1.504,6.8256,6.8256,0,0,1-2.786.542,6.7451,6.7451,0,0,1-2.786-.55Zm27.4-4.625-8.718-15.023a.5508.5508,0,0,0-.252-.245,1.0709,1.0709,0,0,0-.343-.045h-1.069v21.603h1.359v-18.413a8.4946,8.4946,0,0,0-.046-.855l8.733,15.115a.6858.6858,0,0,0,.61.397h.245a.665.665,0,0,0,.61-.397l8.504-15.099a8.3267,8.3267,0,0,0-.046.839v18.413h1.374v-21.603h-1.084a.9976.9976,0,0,0-.335.045.56.56,0,0,0-.245.245l-8.488,15.007a4.0183,4.0183,0,0,0-.222.451c-.066.158-.129.318-.191.481a6.2733,6.2733,0,0,0-.396-.916Z" transform="translate(-6.9628 -9.5219)" style="fill:#717e84"/><path d="M217.6171,120.1947h1.389l8.916-21.603h-1.221a.54.54,0,0,0-.359.122.8165.8165,0,0,0-.221.29l-7.344,17.924a8.3931,8.3931,0,0,0-.443,1.496,9.5558,9.5558,0,0,0-.473-1.496l-7.3591-17.924a.76.76,0,0,0-.2129-.297.5282.5282,0,0,0-.351-.115h-1.237l8.916,21.603Zm31.2819-15.336a10.15,10.15,0,0,0-2.1069-3.488,9.283,9.283,0,0,0-3.252-2.237,10.8493,10.8493,0,0,0-4.198-.786,10.6755,10.6755,0,0,0-4.168.794,9.3947,9.3947,0,0,0-3.252,2.236,10.1672,10.1672,0,0,0-2.115,3.481,13.977,13.977,0,0,0,0,9.069,10.1577,10.1577,0,0,0,2.115,3.481,9.2969,9.2969,0,0,0,3.252,2.229,11.5236,11.5236,0,0,0,8.366,0,9.3161,9.3161,0,0,0,3.252-2.229,10.0629,10.0629,0,0,0,2.1069-3.481,14.1166,14.1166,0,0,0,0-9.069Zm-1.4959,8.596a8.7734,8.7734,0,0,1-1.764,3.046,7.494,7.494,0,0,1-2.74,1.908,9.2988,9.2988,0,0,1-3.5569.656,9.16,9.16,0,0,1-3.52-.656,7.66,7.66,0,0,1-2.748-1.908,8.7221,8.7221,0,0,1-1.786-3.046,13.3688,13.3688,0,0,1,0-8.13,8.7,8.7,0,0,1,1.786-3.053,7.7181,7.7181,0,0,1,2.748-1.916,9.0694,9.0694,0,0,1,3.52-.665,9.2066,9.2066,0,0,1,3.5569.665,7.55,7.55,0,0,1,2.74,1.916,8.7511,8.7511,0,0,1,1.764,3.053,13.5113,13.5113,0,0,1,0,8.13Zm17.401.45-8.718-15.023a.5478.5478,0,0,0-.252-.244,1.0407,1.0407,0,0,0-.343-.046h-1.069v21.603h1.359v-18.412a8.4637,8.4637,0,0,0-.046-.855l8.733,15.115a.6865.6865,0,0,0,.61.396h.245a.6654.6654,0,0,0,.61-.396l8.5041-15.1a8.3459,8.3459,0,0,0-.046.84v18.412h1.3739V98.5917h-1.0839a.9694.9694,0,0,0-.335.046.5572.5572,0,0,0-.245.244l-8.488,15.008a4.0891,4.0891,0,0,0-.222.45q-.099.237-.19.481a6.4352,6.4352,0,0,0-.397-.916Zm28.892,4.596a7.9261,7.9261,0,0,1-2.839-1.932,8.771,8.771,0,0,1-1.84-3.076,12.0209,12.0209,0,0,1-.657-4.107,11.8958,11.8958,0,0,1,.649-4.046,8.5207,8.5207,0,0,1,1.848-3.053,8.0441,8.0441,0,0,1,2.893-1.924,10.2332,10.2332,0,0,1,3.801-.672,10.8308,10.8308,0,0,1,2.702.291,9.7751,9.7751,0,0,1,1.855.656,7.1675,7.1675,0,0,1,1.176.702,3.2026,3.2026,0,0,0,.664.428.5683.5683,0,0,0,.26.061.4259.4259,0,0,0,.381-.229l.4129-.672a11.4606,11.4606,0,0,0-1.4969-1.107,9.2008,9.2008,0,0,0-1.679-.809,10.58,10.58,0,0,0-1.947-.496,14.4223,14.4223,0,0,0-2.2821-.168,12.2419,12.2419,0,0,0-4.4959.786,9.5511,9.5511,0,0,0-3.412,2.229,9.8838,9.8838,0,0,0-2.168,3.481,13.9069,13.9069,0,0,0,0,9.092,10.0384,10.0384,0,0,0,2.145,3.488,9.458,9.458,0,0,0,3.313,2.229,11.1983,11.1983,0,0,0,4.267.786,18.1086,18.1086,0,0,0,2.504-.16,14.3383,14.3383,0,0,0,2.137-.458,11.1433,11.1433,0,0,0,1.863-.74,14.0724,14.0724,0,0,0,1.6789-1.008v-7.679H299.46v.855a.3267.3267,0,0,0,.114.244.3985.3985,0,0,0,.283.107h4.152v5.817q-.717.411-1.427.74a10.605,10.605,0,0,1-1.496.557,11.0011,11.0011,0,0,1-1.703.344,16.5133,16.5133,0,0,1-2.03.114,9.6431,9.6431,0,0,1-3.657-.671Zm18.481-19.909H310.62v21.603h11.801v-1.328h-10.244V98.5917Zm17.793,19.939a5.9793,5.9793,0,0,1-2.076-1.511,6.6838,6.6838,0,0,1-1.298-2.268,8.5833,8.5833,0,0,1-.45-2.816V98.5917h-1.573v13.359a9.68,9.68,0,0,0,.565,3.336,7.98,7.98,0,0,0,1.626,2.702,7.4781,7.4781,0,0,0,2.58,1.809,9.1909,9.1909,0,0,0,6.825,0,7.4969,7.4969,0,0,0,2.58-1.809,7.9813,7.9813,0,0,0,1.626-2.702,9.68,9.68,0,0,0,.565-3.336V98.5917h-1.558v13.359a8.5894,8.5894,0,0,1-.45,2.817,6.6111,6.6111,0,0,1-1.3051,2.267,5.9743,5.9743,0,0,1-2.0839,1.504,6.8455,6.8455,0,0,1-2.786.542,6.7627,6.7627,0,0,1-2.787-.55Zm.741-24.229a1.5028,1.5028,0,0,0-.275-.404,1.2033,1.2033,0,0,0-.397-.275,1.1843,1.1843,0,0,0-.473-.099,1.1272,1.1272,0,0,0-.466.099,1.2235,1.2235,0,0,0-.389.275,1.3534,1.3534,0,0,0-.267.404,1.1683,1.1683,0,0,0-.1.473,1.1124,1.1124,0,0,0,.1.466,1.1946,1.1946,0,0,0,.267.382,1.3562,1.3562,0,0,0,.389.259,1.1124,1.1124,0,0,0,.466.1,1.1686,1.1686,0,0,0,.473-.1,1.2881,1.2881,0,0,0,.672-.641,1.0607,1.0607,0,0,0,.107-.466,1.1137,1.1137,0,0,0-.107-.473Zm6.359,0a1.3042,1.3042,0,0,0-.275-.404,1.3286,1.3286,0,0,0-.397-.275,1.1305,1.1305,0,0,0-.466-.099,1.1735,1.1735,0,0,0-.87.374,1.2147,1.2147,0,0,0-.367.877,1.1124,1.1124,0,0,0,.1.466,1.1946,1.1946,0,0,0,.267.382,1.37,1.37,0,0,0,.389.259,1.1511,1.1511,0,0,0,.481.1,1.1157,1.1157,0,0,0,.466-.1,1.4858,1.4858,0,0,0,.397-.259,1.1564,1.1564,0,0,0,.275-.382,1.1272,1.1272,0,0,0,.099-.466,1.184,1.184,0,0,0-.099-.473Zm25.337,22.298a.9927.9927,0,0,0-.146.099,10.72,10.72,0,0,1-1.297,1.038,7.5206,7.5206,0,0,1-1.42.748,8.0332,8.0332,0,0,1-1.672.458,12.5438,12.5438,0,0,1-2.069.153,8.749,8.749,0,0,1-3.427-.664,7.8729,7.8729,0,0,1-2.74-1.909,8.8131,8.8131,0,0,1-1.817-3.045,11.8923,11.8923,0,0,1-.657-4.092,11.5391,11.5391,0,0,1,.664-4.023,8.85,8.85,0,0,1,1.855-3.053,8.11,8.11,0,0,1,2.84-1.939,9.4042,9.4042,0,0,1,3.618-.68,10.23,10.23,0,0,1,1.909.161,9.408,9.408,0,0,1,1.481.397,6.51,6.51,0,0,1,1.1069.519q.4651.282.7931.519t.542.397a.6481.6481,0,0,0,.352.16.4247.4247,0,0,0,.381-.183l.474-.687a12.3743,12.3743,0,0,0-1.466-1.13,8.574,8.574,0,0,0-1.596-.817,9.9212,9.9212,0,0,0-1.824-.503,12.2065,12.2065,0,0,0-2.153-.176,11.1854,11.1854,0,0,0-4.297.801,9.6724,9.6724,0,0,0-3.344,2.26,10.22,10.22,0,0,0-2.168,3.489,12.5458,12.5458,0,0,0-.771,4.488,13.1882,13.1882,0,0,0,.748,4.55,10.2508,10.2508,0,0,0,2.084,3.488,9.1351,9.1351,0,0,0,3.2059,2.229,10.5019,10.5019,0,0,0,4.1151.786,12.8247,12.8247,0,0,0,2.466-.221,10.1191,10.1191,0,0,0,2.061-.626,9.05,9.05,0,0,0,1.732-.977,10.0925,10.0925,0,0,0,1.466-1.29l-.611-.657a.3532.3532,0,0,0-.259-.106.3158.3158,0,0,0-.16.038Zm6.889-18.038h-1.557v21.633h1.557v-10.412h1.39a4.1186,4.1186,0,0,1,.61.038,1.5344,1.5344,0,0,1,.42.122,1.3367,1.3367,0,0,1,.313.206c.092.082.193.179.305.29l9.145,9.344a2.539,2.539,0,0,0,.352.298,1.0414,1.0414,0,0,0,.564.114h1.268l-9.955-10.381a3.3193,3.3193,0,0,0-.511-.497,1.7285,1.7285,0,0,0-.572-.282,2.0408,2.0408,0,0,0,.496-.275,4.4152,4.4152,0,0,0,.511-.473l9.435-9.695H381.8a1.1725,1.1725,0,0,0-.511.099,1.7463,1.7463,0,0,0-.451.344l-8.717,8.962a2.4905,2.4905,0,0,1-.321.275,1.5829,1.5829,0,0,1-.328.175,1.5289,1.5289,0,0,1-.389.092,4.8917,4.8917,0,0,1-.504.023h-1.283v-10Z" transform="translate(-6.9628 -9.5219)" style="fill:#717e84"/><path d="M225.8391,66.0849v9.732h-10.624v-9.732h-4.224V88.71h4.224V78.821h10.624V88.71h4.225V66.0849Zm14.776,14.0817,2.738-7.4946q.204-.5163.423-1.2126t.422-1.4942q.219.798.438,1.4864t.423,1.1891l2.754,7.5259Zm5.743-14.0817H242.07L233.1681,88.71h3.285a1.35,1.35,0,0,0,.892-.298,1.4927,1.4927,0,0,0,.4849-.657l1.69-4.6153h9.372l1.69,4.6153a1.7029,1.7029,0,0,0,.516.681,1.3882,1.3882,0,0,0,.892.274h3.255l-8.887-22.6248ZM262.5571,77.46v-8.12h3.145a6.7385,6.7385,0,0,1,2.034.2738,3.7542,3.7542,0,0,1,1.424.79,3.2464,3.2464,0,0,1,.845,1.2517,4.5581,4.5581,0,0,1,.282,1.6429,5.0243,5.0243,0,0,1-.282,1.7289,3.36,3.36,0,0,1-.853,1.3143,3.8285,3.8285,0,0,1-1.431.8292,6.3392,6.3392,0,0,1-2.019.29Zm-4.209-11.3749V88.71h4.209V80.7455h3.145a12.2647,12.2647,0,0,0,3.857-.5476,7.64,7.64,0,0,0,2.746-1.5333,6.251,6.251,0,0,0,1.643-2.3548,8.0406,8.0406,0,0,0,.547-3.0119,7.8577,7.8577,0,0,0-.524-2.91,5.8975,5.8975,0,0,0-1.603-2.2844,7.5662,7.5662,0,0,0-2.739-1.4864,12.91,12.91,0,0,0-3.927-.532ZM282.3151,77.46v-8.12h3.145a6.7431,6.7431,0,0,1,2.034.2738,3.7618,3.7618,0,0,1,1.424.79,3.2564,3.2564,0,0,1,.845,1.2517,4.58,4.58,0,0,1,.281,1.6429,5.0485,5.0485,0,0,1-.281,1.7289,3.3584,3.3584,0,0,1-.853,1.3143,3.8249,3.8249,0,0,1-1.432.8292,6.3284,6.3284,0,0,1-2.018.29Zm-4.209-11.3749V88.71h4.209V80.7455h3.145a12.2647,12.2647,0,0,0,3.857-.5476,7.6488,7.6488,0,0,0,2.746-1.5333,6.2622,6.2622,0,0,0,1.643-2.3548,8.0406,8.0406,0,0,0,.547-3.0119,7.878,7.878,0,0,0-.524-2.91,5.9,5.9,0,0,0-1.604-2.2844,7.5531,7.5531,0,0,0-2.738-1.4864,12.9192,12.9192,0,0,0-3.927-.532Zm24.058,0h-4.225V88.71h4.225V66.0849Zm21.119,0V79.838q0,.454.031.9857t.078,1.08l-11.86-15.1456a3.2913,3.2913,0,0,0-.313-.352,1.0288,1.0288,0,0,0-.633-.2973,3.9634,3.9634,0,0,0-.462-.0235h-2.206V88.71h3.708V74.8156q0-.8762-.094-1.9089l11.813,15.083a1.9456,1.9456,0,0,0,.65.555,1.8913,1.8913,0,0,0,.837.165h2.159V66.0849Zm23.744,3.3483V66.0849h-14.269V88.71h14.269v-3.364h-10.045V78.9462h7.9169V75.7074h-7.9169V69.4332Zm17.7809-1.22a8.3452,8.3452,0,0,0-2.8789-1.7524,10.5647,10.5647,0,0,0-3.693-.6258,8.5,8.5,0,0,0-3.16.5476,7.0228,7.0228,0,0,0-2.316,1.4551,6.26,6.26,0,0,0-1.925,4.49,6.7131,6.7131,0,0,0,.446,2.6051,5.1965,5.1965,0,0,0,1.182,1.76,6.1715,6.1715,0,0,0,1.674,1.1422,16.4183,16.4183,0,0,0,1.909.751q.9688.3132,1.909.5789a8.8764,8.8764,0,0,1,1.674.6494,3.5992,3.5992,0,0,1,1.181.9466,2.2752,2.2752,0,0,1,.446,1.4551,3.0617,3.0617,0,0,1-.986,2.4484,4.1232,4.1232,0,0,1-2.7851.853,5.6191,5.6191,0,0,1-2.01-.321,8.4013,8.4013,0,0,1-1.463-.7117q-.627-.3909-1.08-.7119a1.4948,1.4948,0,0,0-.845-.3208,1.0247,1.0247,0,0,0-.532.1487,1.3293,1.3293,0,0,0-.407.3676l-1.236,2.0181a8.696,8.696,0,0,0,1.502,1.221,10.8115,10.8115,0,0,0,1.808.939,11.2572,11.2572,0,0,0,2.01.602,10.7312,10.7312,0,0,0,2.1279.211,9.0675,9.0675,0,0,0,3.3331-.571,7.219,7.219,0,0,0,2.464-1.565,6.6084,6.6084,0,0,0,1.533-2.331,7.7863,7.7863,0,0,0,.524-2.871,5.7919,5.7919,0,0,0-.445-2.3939,5.1216,5.1216,0,0,0-1.182-1.6663,6.6324,6.6324,0,0,0-1.674-1.1265,18.1906,18.1906,0,0,0-1.924-.7824q-.987-.3362-1.925-.6336a10.94,10.94,0,0,1-1.674-.6728,3.7219,3.7219,0,0,1-1.181-.9075,1.9958,1.9958,0,0,1-.446-1.33,2.9545,2.9545,0,0,1,.219-1.15,2.3372,2.3372,0,0,1,.665-.9,3.2185,3.2185,0,0,1,1.103-.5867,5.0158,5.0158,0,0,1,1.533-.2113,5.2306,5.2306,0,0,1,1.682.2426,7.5641,7.5641,0,0,1,1.244.54c.354.1983.66.3782.915.54a1.3514,1.3514,0,0,0,.712.2426.8832.8832,0,0,0,.5239-.1487,1.446,1.446,0,0,0,.3991-.4772l1.0489-1.9871Zm17.7451,0a8.3279,8.3279,0,0,0-2.879-1.7524,10.555,10.555,0,0,0-3.692-.6258,8.5089,8.5089,0,0,0-3.161.5476,7.017,7.017,0,0,0-2.315,1.4551,6.26,6.26,0,0,0-1.925,4.49,6.7131,6.7131,0,0,0,.446,2.6051,5.1959,5.1959,0,0,0,1.181,1.76,6.1936,6.1936,0,0,0,1.675,1.1422,16.4108,16.4108,0,0,0,1.908.751q.9705.3132,1.909.5789a8.8234,8.8234,0,0,1,1.674.6494,3.6033,3.6033,0,0,1,1.182.9466,2.2752,2.2752,0,0,1,.446,1.4551,3.0617,3.0617,0,0,1-.986,2.4484,4.1248,4.1248,0,0,1-2.785.853,5.6246,5.6246,0,0,1-2.011-.321,8.4722,8.4722,0,0,1-1.463-.7117q-.6255-.3909-1.079-.7119a1.4948,1.4948,0,0,0-.845-.3208,1.025,1.025,0,0,0-.532.1487,1.3168,1.3168,0,0,0-.407.3676l-1.236,2.0181a8.696,8.696,0,0,0,1.502,1.221,10.8017,10.8017,0,0,0,1.807.939,11.2925,11.2925,0,0,0,2.011.602,10.7322,10.7322,0,0,0,2.128.211,9.0656,9.0656,0,0,0,3.332-.571,7.2124,7.2124,0,0,0,2.4649-1.565,6.6209,6.6209,0,0,0,1.5331-2.331,7.8068,7.8068,0,0,0,.524-2.871,5.7752,5.7752,0,0,0-.446-2.3939,5.1043,5.1043,0,0,0-1.181-1.6663,6.6306,6.6306,0,0,0-1.674-1.1265,18.2069,18.2069,0,0,0-1.925-.7824q-.9855-.3362-1.924-.6336a10.9453,10.9453,0,0,1-1.6741-.6728,3.726,3.726,0,0,1-1.1819-.9075,2.001,2.001,0,0,1-.446-1.33,2.9368,2.9368,0,0,1,.22-1.15,2.3347,2.3347,0,0,1,.664-.9,3.2236,3.2236,0,0,1,1.104-.5867,5.0158,5.0158,0,0,1,1.533-.2113,5.2306,5.2306,0,0,1,1.682.2426,7.6017,7.6017,0,0,1,1.244.54q.531.2974.915.54a1.3514,1.3514,0,0,0,.712.2426.888.888,0,0,0,.524-.1487,1.4471,1.4471,0,0,0,.399-.4772l1.048-1.9871Zm8.008.5068V66.6014h.882a2.5342,2.5342,0,0,1,.618.0618.84.84,0,0,1,.375.19.6505.6505,0,0,1,.186.3214,1.8266,1.8266,0,0,1,.049.4492,1.7229,1.7229,0,0,1-.058.47.7185.7185,0,0,1-.21.3461.9712.9712,0,0,1-.42.21,2.8348,2.8348,0,0,1-.696.07Zm-1.772-3.4534v7.3929h1.772V69.9805h.454a.6143.6143,0,0,1,.309.0619.6343.6343,0,0,1,.185.1772l1.187,2.1676a.5406.5406,0,0,0,.519.2719h1.69l-1.492-2.53a2.5476,2.5476,0,0,0-.243-.375,1.2412,1.2412,0,0,0-.309-.2761,2.1344,2.1344,0,0,0,1.178-.7953,2.1947,2.1947,0,0,0,.379-1.2816,1.8786,1.8786,0,0,0-.717-1.5825,3.7086,3.7086,0,0,0-2.258-.5522Zm.734,8.4232a4.89,4.89,0,0,1-1.574-1.0838,5.0614,5.0614,0,0,1-1.051-1.62,5.2008,5.2008,0,0,1-.383-2.0027,5.373,5.373,0,0,1,.173-1.3764,5.2039,5.2039,0,0,1,.494-1.2321,5.0135,5.0135,0,0,1,.771-1.0385,4.92,4.92,0,0,1,1.001-.7995,4.827,4.827,0,0,1,2.522-.6964,4.9127,4.9127,0,0,1,2.543.6964,5.0477,5.0477,0,0,1,1.013.7995,4.88,4.88,0,0,1,.779,1.0385,5.3024,5.3024,0,0,1,.676,2.6085,5.1923,5.1923,0,0,1-.177,1.3681,5.2551,5.2551,0,0,1-.499,1.22,4.8273,4.8273,0,0,1-.779,1.03,4.9861,4.9861,0,0,1-2.212,1.3022,4.9276,4.9276,0,0,1-1.344.1814,4.8272,4.8272,0,0,1-1.953-.3956Zm.338-10.5784a6.1232,6.1232,0,0,0-3.627,2.7981,6.2033,6.2033,0,0,0-.614,1.4547,6.1093,6.1093,0,0,0,0,3.2349,6.1094,6.1094,0,0,0,4.241,4.24,6.0989,6.0989,0,0,0,3.235,0,6.1428,6.1428,0,0,0,1.454-.614,6.0891,6.0891,0,0,0,2.798-3.63,6.0673,6.0673,0,0,0,0-3.2308,6.1243,6.1243,0,0,0-.614-1.4547,6.119,6.119,0,0,0-2.184-2.1841,6.151,6.151,0,0,0-1.454-.614,6.0989,6.0989,0,0,0-3.235,0Z" transform="translate(-6.9628 -9.5219)" style="fill:#717e84"/><path d="M225.0231,52.3144a1.3871,1.3871,0,0,0-.308.2122,6.4766,6.4766,0,0,1-.973.739,5.3087,5.3087,0,0,1-1.039.49,6.1859,6.1859,0,0,1-1.2.2781,10.9632,10.9632,0,0,1-1.456.0878,6.2909,6.2909,0,0,1-2.517-.5049,5.8484,5.8484,0,0,1-2.034-1.4561,6.9617,6.9617,0,0,1-1.368-2.3414,9.2582,9.2582,0,0,1-.505-3.1755,9.8176,9.8176,0,0,1,.468-3.1536,6.7411,6.7411,0,0,1,1.317-2.3415,5.651,5.651,0,0,1,2.027-1.4633,6.5251,6.5251,0,0,1,2.598-.5049,7.7343,7.7343,0,0,1,1.47.1244,6.9313,6.9313,0,0,1,1.12.3073,5.3214,5.3214,0,0,1,.849.4024c.243.1464.458.2806.643.4024s.356.2246.513.3074a.9625.9625,0,0,0,.453.1243.85.85,0,0,0,.505-.1317,1.1944,1.1944,0,0,0,.3-.3073l1.317-1.8292a9.7821,9.7821,0,0,0-3.051-1.99,10.4242,10.4242,0,0,0-4.105-.761,10.9466,10.9466,0,0,0-4.244.7976,9.7061,9.7061,0,0,0-3.3,2.2316,10.0509,10.0509,0,0,0-2.143,3.417,12.085,12.085,0,0,0-.761,4.3683,12.8561,12.8561,0,0,0,.709,4.3462,9.7972,9.7972,0,0,0,2.042,3.4244,9.3221,9.3221,0,0,0,3.212,2.2389,10.6634,10.6634,0,0,0,4.236.8049,10.9174,10.9174,0,0,0,4.515-.8488,8.518,8.518,0,0,0,3.168-2.4438l-1.551-1.6829a.7854.7854,0,0,0-.571-.2488.7422.7422,0,0,0-.336.0805Zm24.32-8.6267a10.6789,10.6789,0,0,0-1.0029-2.6048,10.0653,10.0653,0,0,0-1.602-2.1731,9.6336,9.6336,0,0,0-2.129-1.6537,10.6572,10.6572,0,0,0-2.605-1.0536,11.8775,11.8775,0,0,0-3.029-.3732,11.4068,11.4068,0,0,0-4.376.8122,9.9583,9.9583,0,0,0-3.388,2.2609,10.1593,10.1593,0,0,0-2.1871,3.4317,12.3567,12.3567,0,0,0,0,8.6193,10.1574,10.1574,0,0,0,2.1871,3.4317,9.9569,9.9569,0,0,0,3.388,2.2609,12.2324,12.2324,0,0,0,8.766,0,9.8666,9.8666,0,0,0,3.38-2.2609,10.1071,10.1071,0,0,0,2.173-3.4317,11.81,11.81,0,0,0,.769-4.31,12.4027,12.4027,0,0,0-.3441-2.9561Zm-4.1489,6.08a6.61,6.61,0,0,1-1.332,2.3414,5.73,5.73,0,0,1-2.1,1.4707,7.8412,7.8412,0,0,1-5.575,0A5.799,5.799,0,0,1,234.08,52.11a6.5492,6.5492,0,0,1-1.3389-2.3414,10.6413,10.6413,0,0,1,0-6.2487,6.6257,6.6257,0,0,1,1.3389-2.3487,5.7617,5.7617,0,0,1,2.1071-1.478,7.8412,7.8412,0,0,1,5.575,0,5.6934,5.6934,0,0,1,2.1,1.478,6.6883,6.6883,0,0,1,1.332,2.3487,10.663,10.663,0,0,1,0,6.2487Zm11.76-3.6365V39.1073h2.517a5.0748,5.0748,0,0,1,3.241.8634,3.0065,3.0065,0,0,1,1.061,2.4731,4.0347,4.0347,0,0,1-.263,1.4781,3.0918,3.0918,0,0,1-.798,1.1634,3.746,3.746,0,0,1-1.361.7682,6.0855,6.0855,0,0,1-1.939.2781Zm7.287,3.278a3.6637,3.6637,0,0,0-.585-.71,3.8919,3.8919,0,0,0-.702-.52,7.349,7.349,0,0,0,1.983-.9219,6.1124,6.1124,0,0,0,1.463-1.361,5.8515,5.8515,0,0,0,.907-1.7268,6.6851,6.6851,0,0,0-.153-4.4852,4.9066,4.9066,0,0,0-1.456-1.9244A7.0813,7.0813,0,0,0,263.166,36.51a13.4166,13.4166,0,0,0-3.6949-.4463h-6.454V57.2241h3.937V48.9559h1.683a1.9218,1.9218,0,0,1,.885.161,1.5664,1.5664,0,0,1,.549.5414l4.449,6.7755a1.559,1.559,0,0,0,1.463.79h3.556l-5.298-7.8145Zm11.333-2.7073v-7.595h2.941a6.2974,6.2974,0,0,1,1.902.2561,3.5134,3.5134,0,0,1,1.332.739,3.0339,3.0339,0,0,1,.79,1.1707,4.26,4.26,0,0,1,.264,1.5366,4.6948,4.6948,0,0,1-.264,1.617,3.134,3.134,0,0,1-.797,1.2293,3.5787,3.5787,0,0,1-1.339.7756,5.93,5.93,0,0,1-1.888.2707Zm-3.937-10.6388V57.2241h3.937V49.7754h2.941a11.4632,11.4632,0,0,0,3.607-.5122,7.1411,7.1411,0,0,0,2.569-1.4341,5.849,5.849,0,0,0,1.536-2.2024,7.5081,7.5081,0,0,0,.5119-2.817,7.3564,7.3564,0,0,0-.49-2.7219,5.5184,5.5184,0,0,0-1.5-2.1366,7.0753,7.0753,0,0,0-2.561-1.39,12.08,12.08,0,0,0-3.673-.4975Zm37.903,7.6242a10.6409,10.6409,0,0,0-1.002-2.6048,10.07,10.07,0,0,0-1.603-2.1731,9.6312,9.6312,0,0,0-2.129-1.6537,10.6412,10.6412,0,0,0-2.605-1.0536,11.8719,11.8719,0,0,0-3.029-.3732,11.4068,11.4068,0,0,0-4.376.8122,9.9454,9.9454,0,0,0-3.387,2.2609,10.1447,10.1447,0,0,0-2.188,3.4317,12.3552,12.3552,0,0,0,0,8.6193,10.1428,10.1428,0,0,0,2.188,3.4317,9.944,9.944,0,0,0,3.387,2.2609,12.2324,12.2324,0,0,0,8.766,0,9.88,9.88,0,0,0,3.381-2.2609,10.1376,10.1376,0,0,0,2.173-3.4317,11.8309,11.8309,0,0,0,.768-4.31,12.4079,12.4079,0,0,0-.344-2.9561Zm-4.149,6.08A6.6239,6.6239,0,0,1,304.06,52.11a5.7464,5.7464,0,0,1-2.1,1.4707,7.8439,7.8439,0,0,1-5.576,0,5.8062,5.8062,0,0,1-2.107-1.4707,6.5479,6.5479,0,0,1-1.339-2.3414,10.663,10.663,0,0,1,0-6.2487,6.6244,6.6244,0,0,1,1.339-2.3487,5.7688,5.7688,0,0,1,2.107-1.478,7.8439,7.8439,0,0,1,5.576,0,5.71,5.71,0,0,1,2.1,1.478,6.702,6.702,0,0,1,1.331,2.3487,10.6413,10.6413,0,0,1,0,6.2487Zm11.76-3.6365V39.1073h2.517a5.0729,5.0729,0,0,1,3.241.8634,3.0036,3.0036,0,0,1,1.061,2.4731,4.014,4.014,0,0,1-.263,1.4781,3.08,3.08,0,0,1-.798,1.1634,3.7414,3.7414,0,0,1-1.36.7682,6.0944,6.0944,0,0,1-1.9391.2781Zm7.288,3.278a3.7041,3.7041,0,0,0-.586-.71,3.8229,3.8229,0,0,0-.702-.52,7.349,7.349,0,0,0,1.983-.9219,6.1124,6.1124,0,0,0,1.463-1.361,5.8518,5.8518,0,0,0,.908-1.7268,6.41,6.41,0,0,0,.314-2.0194,6.3313,6.3313,0,0,0-.468-2.4658,4.8972,4.8972,0,0,0-1.456-1.9244,7.0816,7.0816,0,0,0-2.532-1.2512,13.4184,13.4184,0,0,0-3.695-.4463h-6.453V57.2241h3.936V48.9559h1.683a1.9218,1.9218,0,0,1,.885.161,1.5655,1.5655,0,0,1,.549.5414l4.449,6.7755a1.559,1.559,0,0,0,1.463.79h3.556l-5.297-7.8145Zm13.138-.1756,2.561-7.01q.189-.4828.395-1.1341.204-.651.395-1.3975.204.7462.41,1.39.204.6441.395,1.1122l2.5749,7.0389Zm5.37-13.1705h-4.009l-8.327,21.1606h3.073a1.2643,1.2643,0,0,0,.834-.2781,1.3961,1.3961,0,0,0,.4539-.6146l1.58-4.317h8.766l1.581,4.317a1.5935,1.5935,0,0,0,.482.6366,1.3011,1.3011,0,0,0,.835.2561h3.043l-8.312-21.1606Zm22.838,0h-16.698v3.2341h6.381V57.2241h3.936V39.2976h6.381V36.0635Zm15.669,3.1316V36.0635h-13.346V57.2241h13.346V54.0778h-9.395V48.0925h7.405V45.0633h-7.405V39.1951Z" transform="translate(-6.9628 -9.5219)" style="fill:#717e84"/></svg>