<svg xmlns="http://www.w3.org/2000/svg" viewBox="0 0 369.3 68.03"><defs><style>.a{fill:#2d3038;}.b{fill:#797d82;}.c{fill:#3ea4ab;}</style></defs><path class="a" d="M268.55,184.9a2.36,2.36,0,0,1-.65-1.79V160a2.36,2.36,0,0,1,.65-1.79,2.51,2.51,0,0,1,1.81-.63h7.85q6.87,0,10.66,3.67c2.52,2.44,3.79,5.88,3.79,10.29s-1.27,7.9-3.79,10.34-6.08,3.67-10.66,3.67h-7.85A2.51,2.51,0,0,1,268.55,184.9Zm19-13.38q0-9.79-9.64-9.8H273v19.65h4.89Q287.53,181.37,287.54,171.52Z" transform="translate(-239.36 -147.53)"/><path class="a" d="M309.37,166.17a2,2,0,0,1,.59,1.55,2.16,2.16,0,0,1-.51,1.58,3.19,3.19,0,0,1-1.87.68l-1.19.12a4.76,4.76,0,0,0-3.43,1.58,5.2,5.2,0,0,0-1.09,3.38v8.33a2.2,2.2,0,0,1-.72,1.77,2.64,2.64,0,0,1-1.78.61,2.56,2.56,0,0,1-1.77-.61,2.25,2.25,0,0,1-.7-1.77V168a2.11,2.11,0,0,1,.7-1.7,2.55,2.55,0,0,1,1.73-.6,2.35,2.35,0,0,1,1.66.58,2.07,2.07,0,0,1,.64,1.64v1.59a5.92,5.92,0,0,1,2.24-2.7,6.94,6.94,0,0,1,3.31-1.07l.56,0A2.13,2.13,0,0,1,309.37,166.17Z" transform="translate(-239.36 -147.53)"/><path class="a" d="M327.68,180.73a2.15,2.15,0,0,1,.42,1.39,2.4,2.4,0,0,1-1.47,2.06,13.21,13.21,0,0,1-3.06,1.22,12.7,12.7,0,0,1-3.25.45,10.1,10.1,0,0,1-7.42-2.7,9.88,9.88,0,0,1-2.74-7.38,11.41,11.41,0,0,1,1.19-5.28,8.68,8.68,0,0,1,3.35-3.57,9.59,9.59,0,0,1,4.9-1.27,8.89,8.89,0,0,1,4.57,1.15,7.79,7.79,0,0,1,3,3.26,10.7,10.7,0,0,1,1.08,5c0,1.13-.51,1.7-1.51,1.7H315a6.26,6.26,0,0,0,1.55,4A5.2,5.2,0,0,0,320.4,182a7,7,0,0,0,2.24-.32,21.54,21.54,0,0,0,2.2-.87,4.45,4.45,0,0,1,1.75-.63A1.34,1.34,0,0,1,327.68,180.73Zm-11.19-10.32a6,6,0,0,0-1.45,3.65h9a5.67,5.67,0,0,0-1.19-3.67,3.94,3.94,0,0,0-3.1-1.25A4.28,4.28,0,0,0,316.49,170.41Z" transform="translate(-239.36 -147.53)"/><path class="a" d="M346.25,167.66q2,2,2,6.09v9.68a2.23,2.23,0,0,1-.64,1.69,2.38,2.38,0,0,1-1.74.61,2.34,2.34,0,0,1-1.69-.63,2.22,2.22,0,0,1-.66-1.67v-.87a5.15,5.15,0,0,1-2.12,2.42,6.36,6.36,0,0,1-3.35.87,7.73,7.73,0,0,1-3.53-.79,6.26,6.26,0,0,1-2.5-2.18,5.53,5.53,0,0,1-.92-3.1,4.93,4.93,0,0,1,1.09-3.37,6.6,6.6,0,0,1,3.56-1.79,32.28,32.28,0,0,1,6.78-.56h1v-.91a4.07,4.07,0,0,0-.83-2.84,3.55,3.55,0,0,0-2.7-.89,8.39,8.39,0,0,0-2.34.34c-.79.22-1.73.55-2.82,1a3.86,3.86,0,0,1-1.5.52,1.5,1.5,0,0,1-1.18-.52,2,2,0,0,1-.45-1.35,2,2,0,0,1,.34-1.17,3.14,3.14,0,0,1,1.13-.93,12.93,12.93,0,0,1,3.31-1.19,17.17,17.17,0,0,1,3.79-.44Q344.29,165.65,346.25,167.66Zm-4,13.29a4.78,4.78,0,0,0,1.25-3.43v-.84h-.71a27.24,27.24,0,0,0-4.13.24,4,4,0,0,0-2.1.84,2.11,2.11,0,0,0-.64,1.62,2.7,2.7,0,0,0,.9,2.09,3.15,3.15,0,0,0,2.2.81A4.22,4.22,0,0,0,342.24,181Z" transform="translate(-239.36 -147.53)"/><path class="a" d="M380.7,167.54c1.12,1.25,1.69,3.28,1.69,6.09v9.76a2.25,2.25,0,0,1-.7,1.77,2.6,2.6,0,0,1-1.8.61,2.56,2.56,0,0,1-1.77-.61,2.25,2.25,0,0,1-.69-1.77v-9.76a4.88,4.88,0,0,0-.78-3.12,2.88,2.88,0,0,0-2.36-.93,3.88,3.88,0,0,0-3.1,1.33,5.41,5.41,0,0,0-1.15,3.63v8.85a2.25,2.25,0,0,1-.69,1.77,2.56,2.56,0,0,1-1.77.61,2.62,2.62,0,0,1-1.78-.61,2.2,2.2,0,0,1-.72-1.77v-9.76a4.89,4.89,0,0,0-.77-3.12,2.9,2.9,0,0,0-2.36-.93,3.83,3.83,0,0,0-3.08,1.33,5.46,5.46,0,0,0-1.13,3.63v8.85a2.23,2.23,0,0,1-.71,1.77,2.64,2.64,0,0,1-1.79.61,2.55,2.55,0,0,1-1.76-.61,2.22,2.22,0,0,1-.7-1.77V168a2.07,2.07,0,0,1,.72-1.7,2.66,2.66,0,0,1,1.78-.6,2.44,2.44,0,0,1,1.69.58,2.08,2.08,0,0,1,.65,1.64v1a6.26,6.26,0,0,1,2.44-2.43,7.29,7.29,0,0,1,3.52-.83q4.37,0,5.83,3.65a6.59,6.59,0,0,1,2.58-2.66,7.53,7.53,0,0,1,3.85-1A6.19,6.19,0,0,1,380.7,167.54Z" transform="translate(-239.36 -147.53)"/><path class="a" d="M399,183.87a1.61,1.61,0,0,1-.77,1.45,3.65,3.65,0,0,1-2.2.41l-1.08-.08c-4.44-.31-6.66-2.7-6.66-7.14v-8.65h-2a2.49,2.49,0,0,1-1.64-.48,2,2,0,0,1,0-2.78,2.54,2.54,0,0,1,1.64-.47h2v-3.65a2.22,2.22,0,0,1,.67-1.71,2.58,2.58,0,0,1,1.83-.63,2.5,2.5,0,0,1,1.78.63,2.23,2.23,0,0,1,.68,1.71v3.65h3.37a2.55,2.55,0,0,1,1.65.47,2,2,0,0,1,0,2.78,2.5,2.5,0,0,1-1.65.48h-3.37v9c0,2,.9,3,2.7,3.13l1.07.08C398.35,182.16,399,182.76,399,183.87Z" transform="translate(-239.36 -147.53)"/><path class="a" d="M417.57,180.73a2.21,2.21,0,0,1,.41,1.39,2.4,2.4,0,0,1-1.47,2.06,13.3,13.3,0,0,1-3.05,1.22,12.77,12.77,0,0,1-3.26.45,10.12,10.12,0,0,1-7.42-2.7,9.92,9.92,0,0,1-2.74-7.38,11.29,11.29,0,0,1,1.2-5.28,8.68,8.68,0,0,1,3.35-3.57,9.54,9.54,0,0,1,4.9-1.27,8.82,8.82,0,0,1,4.56,1.15,7.81,7.81,0,0,1,3,3.26,10.83,10.83,0,0,1,1.07,5c0,1.13-.5,1.7-1.51,1.7h-11.7a6.21,6.21,0,0,0,1.54,4,5.23,5.23,0,0,0,3.81,1.29,7,7,0,0,0,2.25-.32,22.49,22.49,0,0,0,2.2-.87,4.37,4.37,0,0,1,1.74-.63A1.36,1.36,0,0,1,417.57,180.73Zm-11.2-10.32a6,6,0,0,0-1.44,3.65h9a5.67,5.67,0,0,0-1.19-3.67,3.93,3.93,0,0,0-3.09-1.25A4.3,4.3,0,0,0,406.37,170.41Z" transform="translate(-239.36 -147.53)"/><path class="a" d="M436.14,167.66q2,2,2,6.09v9.68a2.26,2.26,0,0,1-.63,1.69,2.42,2.42,0,0,1-1.75.61,2.34,2.34,0,0,1-1.69-.63,2.25,2.25,0,0,1-.65-1.67v-.87a5.2,5.2,0,0,1-2.12,2.42,6.42,6.42,0,0,1-3.36.87,7.79,7.79,0,0,1-3.53-.79,6.33,6.33,0,0,1-2.5-2.18,5.52,5.52,0,0,1-.91-3.1,4.88,4.88,0,0,1,1.09-3.37,6.56,6.56,0,0,1,3.55-1.79,32.32,32.32,0,0,1,6.79-.56h1v-.91a4.12,4.12,0,0,0-.83-2.84,3.58,3.58,0,0,0-2.7-.89,8.33,8.33,0,0,0-2.34.34c-.8.22-1.74.55-2.82,1a3.89,3.89,0,0,1-1.51.52,1.46,1.46,0,0,1-1.17-.52,2,2,0,0,1-.46-1.35,2.07,2.07,0,0,1,.34-1.17,3.14,3.14,0,0,1,1.13-.93,13,13,0,0,1,3.32-1.19,17.1,17.1,0,0,1,3.79-.44C432.82,165.65,434.83,166.32,436.14,167.66Zm-4,13.29a4.83,4.83,0,0,0,1.25-3.43v-.84h-.71a27.15,27.15,0,0,0-4.13.24,4,4,0,0,0-2.11.84,2.1,2.1,0,0,0-.63,1.62,2.73,2.73,0,0,0,.89,2.09,3.17,3.17,0,0,0,2.21.81A4.22,4.22,0,0,0,432.13,181Z" transform="translate(-239.36 -147.53)"/><path class="a" d="M470.58,167.54q1.69,1.88,1.69,6.09v9.76a2.25,2.25,0,0,1-.69,1.77,2.64,2.64,0,0,1-1.81.61,2.59,2.59,0,0,1-1.77-.61,2.25,2.25,0,0,1-.69-1.77v-9.76a5,5,0,0,0-.77-3.12,2.92,2.92,0,0,0-2.37-.93,3.88,3.88,0,0,0-3.09,1.33,5.36,5.36,0,0,0-1.15,3.63v8.85a2.22,2.22,0,0,1-.7,1.77,2.55,2.55,0,0,1-1.76.61,2.64,2.64,0,0,1-1.79-.61,2.23,2.23,0,0,1-.71-1.77v-9.76a4.88,4.88,0,0,0-.78-3.12,2.88,2.88,0,0,0-2.36-.93,3.81,3.81,0,0,0-3.07,1.33,5.4,5.4,0,0,0-1.13,3.63v8.85a2.2,2.2,0,0,1-.72,1.77,2.62,2.62,0,0,1-1.78.61,2.56,2.56,0,0,1-1.77-.61,2.25,2.25,0,0,1-.69-1.77V168a2.06,2.06,0,0,1,.71-1.7,2.69,2.69,0,0,1,1.79-.6,2.42,2.42,0,0,1,1.68.58,2.05,2.05,0,0,1,.66,1.64v1a6.26,6.26,0,0,1,2.44-2.43,7.28,7.28,0,0,1,3.51-.83q4.37,0,5.83,3.65a6.73,6.73,0,0,1,2.58-2.66,7.53,7.53,0,0,1,3.85-1A6.16,6.16,0,0,1,470.58,167.54Z" transform="translate(-239.36 -147.53)"/><path class="a" d="M491.46,185.08a12.75,12.75,0,0,1-4.43-2.2,2.23,2.23,0,0,1-.91-1.91,2.19,2.19,0,0,1,.5-1.45,1.46,1.46,0,0,1,1.17-.61,3.21,3.21,0,0,1,1.62.55,11.9,11.9,0,0,0,3.58,1.79,14.36,14.36,0,0,0,4.12.55,8.1,8.1,0,0,0,4.45-1,3.3,3.3,0,0,0,1.54-2.95,2.56,2.56,0,0,0-1.44-2.33,19.36,19.36,0,0,0-4.83-1.56,29.14,29.14,0,0,1-5.67-1.75,8,8,0,0,1-3.29-2.54,6.57,6.57,0,0,1-1.12-3.93,7.41,7.41,0,0,1,1.39-4.4,9.2,9.2,0,0,1,3.87-3,13.69,13.69,0,0,1,5.58-1.09,13.87,13.87,0,0,1,9.25,3,3.21,3.21,0,0,1,.73.86,2.33,2.33,0,0,1,.22,1.05,2.24,2.24,0,0,1-.5,1.45,1.46,1.46,0,0,1-1.17.61,2.15,2.15,0,0,1-.73-.12,5.73,5.73,0,0,1-.9-.43,13.29,13.29,0,0,0-3.15-1.77,10.8,10.8,0,0,0-3.75-.57,7.36,7.36,0,0,0-4.27,1.09,3.5,3.5,0,0,0-1.56,3,2.78,2.78,0,0,0,1.38,2.5,16,16,0,0,0,4.73,1.63,31.77,31.77,0,0,1,5.73,1.77,8.45,8.45,0,0,1,3.37,2.48,6,6,0,0,1,1.17,3.77,7.18,7.18,0,0,1-1.36,4.34,9,9,0,0,1-3.85,2.94,14.56,14.56,0,0,1-5.7,1A20.07,20.07,0,0,1,491.46,185.08Z" transform="translate(-239.36 -147.53)"/><path class="a" d="M529.1,166.37a2.21,2.21,0,0,1,.67,1.7v15.4a2.17,2.17,0,0,1-.69,1.67,2.61,2.61,0,0,1-1.81.63,2.41,2.41,0,0,1-1.7-.59,2.11,2.11,0,0,1-.64-1.63v-1a6.34,6.34,0,0,1-2.46,2.44,7.1,7.1,0,0,1-3.49.85q-7.14,0-7.14-8v-9.77a2.21,2.21,0,0,1,.67-1.7,2.47,2.47,0,0,1,1.79-.64,2.53,2.53,0,0,1,1.82.64,2.22,2.22,0,0,1,.68,1.7v9.8a4.66,4.66,0,0,0,.83,3.06,3.23,3.23,0,0,0,2.62,1,4.24,4.24,0,0,0,3.31-1.37,5.14,5.14,0,0,0,1.25-3.63v-8.85a2.22,2.22,0,0,1,.68-1.7,2.46,2.46,0,0,1,1.78-.64A2.54,2.54,0,0,1,529.1,166.37Z" transform="translate(-239.36 -147.53)"/><path class="a" d="M546.92,166.17a2,2,0,0,1,.59,1.55,2.16,2.16,0,0,1-.51,1.58,3.19,3.19,0,0,1-1.87.68l-1.19.12a4.76,4.76,0,0,0-3.43,1.58,5.2,5.2,0,0,0-1.09,3.38v8.33a2.2,2.2,0,0,1-.72,1.77,2.62,2.62,0,0,1-1.78.61,2.56,2.56,0,0,1-1.77-.61,2.25,2.25,0,0,1-.69-1.77V168a2.11,2.11,0,0,1,.69-1.7,2.55,2.55,0,0,1,1.73-.6,2.35,2.35,0,0,1,1.66.58,2.07,2.07,0,0,1,.64,1.64v1.59a5.92,5.92,0,0,1,2.24-2.7,6.94,6.94,0,0,1,3.31-1.07l.56,0A2.13,2.13,0,0,1,546.92,166.17Z" transform="translate(-239.36 -147.53)"/><path class="a" d="M564.76,166.09a2,2,0,0,1,1.17-.36,2.5,2.5,0,0,1,1.64.62,1.92,1.92,0,0,1,.74,1.52,2.13,2.13,0,0,1-.24,1l-7.34,15.35a2.63,2.63,0,0,1-1,1.16,2.73,2.73,0,0,1-1.44.39,2.9,2.9,0,0,1-1.45-.39,2.47,2.47,0,0,1-1.05-1.16l-7.39-15.35a2.07,2.07,0,0,1-.19-.92,1.91,1.91,0,0,1,.77-1.54,2.68,2.68,0,0,1,1.77-.64,2.21,2.21,0,0,1,2.1,1.39l5.55,12.26,5.52-12.22A2.39,2.39,0,0,1,564.76,166.09Z" transform="translate(-239.36 -147.53)"/><path class="a" d="M586.9,180.73a2.15,2.15,0,0,1,.41,1.39,2.38,2.38,0,0,1-1.46,2.06,13.21,13.21,0,0,1-3.06,1.22,12.76,12.76,0,0,1-3.25.45,10.08,10.08,0,0,1-7.42-2.7,9.88,9.88,0,0,1-2.74-7.38,11.28,11.28,0,0,1,1.19-5.28,8.68,8.68,0,0,1,3.35-3.57,9.57,9.57,0,0,1,4.9-1.27,8.89,8.89,0,0,1,4.57,1.15,7.79,7.79,0,0,1,3,3.26,10.7,10.7,0,0,1,1.07,5c0,1.13-.5,1.7-1.5,1.7H574.26a6.21,6.21,0,0,0,1.55,4,5.2,5.2,0,0,0,3.81,1.29,7,7,0,0,0,2.24-.32,21.54,21.54,0,0,0,2.2-.87,4.4,4.4,0,0,1,1.75-.63A1.34,1.34,0,0,1,586.9,180.73Zm-11.19-10.32a6,6,0,0,0-1.45,3.65h9a5.72,5.72,0,0,0-1.19-3.67,4,4,0,0,0-3.1-1.25A4.26,4.26,0,0,0,575.71,170.41Z" transform="translate(-239.36 -147.53)"/><path class="a" d="M605.11,166.11a2.13,2.13,0,0,1,1.17-.34,2.51,2.51,0,0,1,1.65.62,1.92,1.92,0,0,1,.74,1.52,2,2,0,0,1-.24.92l-10.84,22.7a2.21,2.21,0,0,1-2.1,1.35,2.49,2.49,0,0,1-1.61-.58,1.81,1.81,0,0,1-.69-1.45,2.54,2.54,0,0,1,.24-1l2.7-5.68-7.39-15.35a2.07,2.07,0,0,1-.19-.92,1.91,1.91,0,0,1,.77-1.54,2.68,2.68,0,0,1,1.77-.64,2.3,2.3,0,0,1,1.23.34,2.19,2.19,0,0,1,.87,1.05l5.55,12.26,5.52-12.22A2.28,2.28,0,0,1,605.11,166.11Z" transform="translate(-239.36 -147.53)"/><path class="b" d="M271.63,211.2a5.87,5.87,0,0,1-2.33-2.5,8.48,8.48,0,0,1-.81-3.81,8.35,8.35,0,0,1,.81-3.8,5.79,5.79,0,0,1,2.33-2.49,6.91,6.91,0,0,1,3.54-.88,7.55,7.55,0,0,1,2.46.39,6.47,6.47,0,0,1,2.05,1.12,1.16,1.16,0,0,1,.36.42,1.35,1.35,0,0,1,.1.53,1.15,1.15,0,0,1-.24.74.71.71,0,0,1-.58.29,1.5,1.5,0,0,1-.81-.27,5.89,5.89,0,0,0-1.59-.89,5.22,5.22,0,0,0-1.63-.24,3.81,3.81,0,0,0-3.12,1.29,7.34,7.34,0,0,0,0,7.6,3.81,3.81,0,0,0,3.12,1.29,4.72,4.72,0,0,0,1.58-.26,7.66,7.66,0,0,0,1.64-.88,3.49,3.49,0,0,1,.39-.19,1,1,0,0,1,.42-.08.73.73,0,0,1,.58.29,1.15,1.15,0,0,1,.24.74,1.38,1.38,0,0,1-.1.52,1.11,1.11,0,0,1-.36.43,6.47,6.47,0,0,1-2.05,1.12,7.55,7.55,0,0,1-2.46.39A7,7,0,0,1,271.63,211.2Z" transform="translate(-239.36 -147.53)"/><path class="b" d="M283.54,211.43a4.22,4.22,0,0,1-1.74-1.76,5.61,5.61,0,0,1-.61-2.68,5.54,5.54,0,0,1,.61-2.67,4.28,4.28,0,0,1,1.74-1.76,5.89,5.89,0,0,1,5.22,0,4.23,4.23,0,0,1,1.72,1.76,5.54,5.54,0,0,1,.61,2.67,5.61,5.61,0,0,1-.61,2.68,4.17,4.17,0,0,1-1.72,1.76,5.8,5.8,0,0,1-5.22,0Zm4.43-2.1a4.58,4.58,0,0,0,0-4.67,2.17,2.17,0,0,0-1.82-.81,2.21,2.21,0,0,0-1.84.81,3.63,3.63,0,0,0-.64,2.33,3.71,3.71,0,0,0,.63,2.34,2.53,2.53,0,0,0,3.67,0Z" transform="translate(-239.36 -147.53)"/><path class="b" d="M299.12,202.21a1,1,0,0,1,.3.77,1,1,0,0,1-.26.79,1.5,1.5,0,0,1-.93.34l-.59.06a2.42,2.42,0,0,0-1.72.8,2.61,2.61,0,0,0-.55,1.68v4.17a1.08,1.08,0,0,1-.35.88,1.31,1.31,0,0,1-.9.31,1.26,1.26,0,0,1-.88-.31,1.12,1.12,0,0,1-.35-.88v-7.68a1.06,1.06,0,0,1,.35-.85,1.27,1.27,0,0,1,.86-.3,1.21,1.21,0,0,1,.84.29,1,1,0,0,1,.32.82v.79a2.93,2.93,0,0,1,1.12-1.35A3.46,3.46,0,0,1,298,202l.28,0A1,1,0,0,1,299.12,202.21Z" transform="translate(-239.36 -147.53)"/><path class="b" d="M308.06,202.58a4.23,4.23,0,0,1,1.53,1.8,6.24,6.24,0,0,1,.55,2.67,6.1,6.1,0,0,1-.55,2.64,4,4,0,0,1-3.76,2.36,3.82,3.82,0,0,1-1.84-.44,3,3,0,0,1-1.25-1.21v4a1,1,0,0,1-.34.81,1.3,1.3,0,0,1-.89.3,1.25,1.25,0,0,1-.91-.32,1.07,1.07,0,0,1-.34-.83V203.16a1.11,1.11,0,0,1,.32-.85,1.2,1.2,0,0,1,.89-.32,1.22,1.22,0,0,1,.89.32,1.12,1.12,0,0,1,.34.85v.5A3,3,0,0,1,304,202.4a3.8,3.8,0,0,1,1.87-.45A4,4,0,0,1,308.06,202.58ZM307,209.32a3.47,3.47,0,0,0,.66-2.27,3.66,3.66,0,0,0-.66-2.34,2.17,2.17,0,0,0-1.82-.84,2.22,2.22,0,0,0-1.84.82,4.49,4.49,0,0,0,0,4.62,2.48,2.48,0,0,0,3.66,0Z" transform="translate(-239.36 -147.53)"/><path class="b" d="M313.76,211.43a4.22,4.22,0,0,1-1.74-1.76,5.61,5.61,0,0,1-.61-2.68,5.54,5.54,0,0,1,.61-2.67,4.28,4.28,0,0,1,1.74-1.76,5.89,5.89,0,0,1,5.22,0,4.23,4.23,0,0,1,1.72,1.76,5.54,5.54,0,0,1,.61,2.67,5.61,5.61,0,0,1-.61,2.68,4.17,4.17,0,0,1-1.72,1.76,5.8,5.8,0,0,1-5.22,0Zm4.43-2.1a4.58,4.58,0,0,0,0-4.67,2.17,2.17,0,0,0-1.82-.81,2.21,2.21,0,0,0-1.84.81,3.63,3.63,0,0,0-.64,2.33,3.71,3.71,0,0,0,.63,2.34,2.53,2.53,0,0,0,3.67,0Z" transform="translate(-239.36 -147.53)"/><path class="b" d="M329.34,202.21a1,1,0,0,1,.3.77,1,1,0,0,1-.26.79,1.5,1.5,0,0,1-.93.34l-.59.06a2.42,2.42,0,0,0-1.72.8,2.61,2.61,0,0,0-.55,1.68v4.17a1.12,1.12,0,0,1-.35.88,1.31,1.31,0,0,1-.9.31,1.26,1.26,0,0,1-.88-.31,1.12,1.12,0,0,1-.35-.88v-7.68a1.06,1.06,0,0,1,.35-.85,1.27,1.27,0,0,1,.86-.3,1.21,1.21,0,0,1,.84.29,1,1,0,0,1,.31.82v.79a3,3,0,0,1,1.13-1.35,3.46,3.46,0,0,1,1.65-.53l.28,0A1,1,0,0,1,329.34,202.21Z" transform="translate(-239.36 -147.53)"/><path class="b" d="M337.65,203a4.22,4.22,0,0,1,1,3.05v4.84a1.11,1.11,0,0,1-.32.84,1.17,1.17,0,0,1-.87.31,1.15,1.15,0,0,1-.84-.32,1.1,1.1,0,0,1-.33-.83v-.44a2.6,2.6,0,0,1-1.06,1.21,3.21,3.21,0,0,1-1.68.44,3.84,3.84,0,0,1-1.77-.4,3.23,3.23,0,0,1-1.25-1.09,2.78,2.78,0,0,1-.45-1.55,2.46,2.46,0,0,1,.54-1.68,3.35,3.35,0,0,1,1.78-.9,16.6,16.6,0,0,1,3.39-.27h.5v-.46a2,2,0,0,0-.42-1.42,1.77,1.77,0,0,0-1.35-.45,4.41,4.41,0,0,0-1.17.17c-.39.12-.86.28-1.41.49a2,2,0,0,1-.75.26.77.77,0,0,1-.59-.26,1,1,0,0,1-.22-.68,1,1,0,0,1,.16-.58,1.74,1.74,0,0,1,.57-.47,6.32,6.32,0,0,1,1.66-.59,8.25,8.25,0,0,1,1.89-.22A4,4,0,0,1,337.65,203Zm-2,6.65a2.4,2.4,0,0,0,.63-1.72v-.41h-.36a12.39,12.39,0,0,0-2.06.12,1.9,1.9,0,0,0-1.05.41,1.07,1.07,0,0,0-.32.81,1.35,1.35,0,0,0,.45,1.05,1.55,1.55,0,0,0,1.1.4A2.1,2.1,0,0,0,335.64,209.6Z" transform="translate(-239.36 -147.53)"/><path class="b" d="M346.94,211.06a.79.79,0,0,1-.38.72,1.8,1.8,0,0,1-1.1.21l-.54,0a3.19,3.19,0,0,1-3.33-3.57v-4.33h-1a1.25,1.25,0,0,1-.82-.24,1,1,0,0,1,0-1.38,1.25,1.25,0,0,1,.82-.24h1v-1.83a1.11,1.11,0,0,1,.33-.85,1.3,1.3,0,0,1,.92-.32,1.24,1.24,0,0,1,.89.32,1.12,1.12,0,0,1,.34.85v1.83h1.68a1.26,1.26,0,0,1,.83.24,1,1,0,0,1,0,1.38,1.26,1.26,0,0,1-.83.24h-1.68v4.51q0,1.47,1.35,1.56l.53,0Q346.94,210.22,346.94,211.06Z" transform="translate(-239.36 -147.53)"/><path class="b" d="M356.22,209.49a1.05,1.05,0,0,1,.21.69,1.22,1.22,0,0,1-.74,1,6.51,6.51,0,0,1-1.52.6,6.4,6.4,0,0,1-1.63.23,5.05,5.05,0,0,1-3.71-1.35,5,5,0,0,1-1.37-3.69,5.64,5.64,0,0,1,.6-2.64,4.31,4.31,0,0,1,1.67-1.79,4.78,4.78,0,0,1,2.45-.63,4.38,4.38,0,0,1,2.28.57,3.9,3.9,0,0,1,1.51,1.63,5.37,5.37,0,0,1,.54,2.48c0,.57-.25.86-.76.86H349.9a3.15,3.15,0,0,0,.77,2,2.63,2.63,0,0,0,1.91.64,3.8,3.8,0,0,0,1.12-.15c.32-.11.69-.26,1.1-.44a2.27,2.27,0,0,1,.87-.32A.68.68,0,0,1,356.22,209.49Zm-5.59-5.16a3,3,0,0,0-.73,1.83h4.49a2.87,2.87,0,0,0-.6-1.84,2,2,0,0,0-1.55-.62A2.12,2.12,0,0,0,350.63,204.33Z" transform="translate(-239.36 -147.53)"/><path class="b" d="M375.5,198.15a1.28,1.28,0,0,1,.33.92v11.65a1.29,1.29,0,0,1-.34.93,1.21,1.21,0,0,1-.91.36,1.2,1.2,0,0,1-.91-.36,1.33,1.33,0,0,1-.34-.93v-4.9h-7.16v4.9a1.25,1.25,0,0,1-.35.93,1.22,1.22,0,0,1-.92.36,1.19,1.19,0,0,1-.9-.36,1.29,1.29,0,0,1-.35-.93V199.07a1.25,1.25,0,0,1,.34-.92,1.21,1.21,0,0,1,.91-.35,1.25,1.25,0,0,1,.92.35,1.21,1.21,0,0,1,.35.92v4.68h7.16v-4.68a1.29,1.29,0,0,1,.34-.92,1.37,1.37,0,0,1,1.83,0Z" transform="translate(-239.36 -147.53)"/><path class="b" d="M385.61,203a4.22,4.22,0,0,1,1,3.05v4.84a1.11,1.11,0,0,1-.32.84,1.33,1.33,0,0,1-1.72,0,1.13,1.13,0,0,1-.32-.83v-.44a2.6,2.6,0,0,1-1.06,1.21,3.24,3.24,0,0,1-1.68.44,3.84,3.84,0,0,1-1.77-.4,3.16,3.16,0,0,1-1.25-1.09A2.78,2.78,0,0,1,378,209a2.46,2.46,0,0,1,.54-1.68,3.35,3.35,0,0,1,1.78-.9,16.6,16.6,0,0,1,3.39-.27h.5v-.46a2,2,0,0,0-.42-1.42,1.77,1.77,0,0,0-1.35-.45,4.41,4.41,0,0,0-1.17.17c-.4.12-.87.28-1.41.49a2,2,0,0,1-.75.26.76.76,0,0,1-.59-.26,1,1,0,0,1-.23-.68,1,1,0,0,1,.17-.58,1.64,1.64,0,0,1,.57-.47,6.19,6.19,0,0,1,1.66-.59,8.25,8.25,0,0,1,1.89-.22A4,4,0,0,1,385.61,203Zm-2,6.65a2.4,2.4,0,0,0,.63-1.72v-.41h-.36a12.31,12.31,0,0,0-2.06.12,1.9,1.9,0,0,0-1.05.41,1,1,0,0,0-.32.81,1.37,1.37,0,0,0,.44,1.05,1.59,1.59,0,0,0,1.11.4A2.1,2.1,0,0,0,383.6,209.6Z" transform="translate(-239.36 -147.53)"/><path class="b" d="M396.68,202.58a4.37,4.37,0,0,1,1.53,1.8,6.24,6.24,0,0,1,.54,2.67,6.1,6.1,0,0,1-.54,2.64,4.17,4.17,0,0,1-1.52,1.74,4.12,4.12,0,0,1-2.24.62,3.86,3.86,0,0,1-1.85-.44,3,3,0,0,1-1.25-1.21v4a1,1,0,0,1-.34.81,1.28,1.28,0,0,1-.89.3,1.24,1.24,0,0,1-.9-.32,1.08,1.08,0,0,1-.35-.83V203.16a1.11,1.11,0,0,1,.33-.85,1.18,1.18,0,0,1,.88-.32,1.2,1.2,0,0,1,.89.32,1.09,1.09,0,0,1,.34.85v.5a3,3,0,0,1,1.26-1.26,3.84,3.84,0,0,1,1.88-.45A4.06,4.06,0,0,1,396.68,202.58Zm-1.06,6.74a3.53,3.53,0,0,0,.65-2.27,3.72,3.72,0,0,0-.65-2.34,2.43,2.43,0,0,0-3.66,0,4.43,4.43,0,0,0,0,4.62,2.48,2.48,0,0,0,3.66,0Z" transform="translate(-239.36 -147.53)"/><path class="b" d="M408.37,202.58a4.28,4.28,0,0,1,1.52,1.8,6.1,6.1,0,0,1,.55,2.67,6,6,0,0,1-.55,2.64,4,4,0,0,1-3.76,2.36,3.85,3.85,0,0,1-1.84-.44A3,3,0,0,1,403,210.4v4a1,1,0,0,1-.34.81,1.46,1.46,0,0,1-1.8,0,1.07,1.07,0,0,1-.34-.83V203.16a1.11,1.11,0,0,1,.33-.85,1.16,1.16,0,0,1,.88-.32,1.2,1.2,0,0,1,.89.32,1.09,1.09,0,0,1,.34.85v.5a3,3,0,0,1,1.26-1.26,3.83,3.83,0,0,1,1.87-.45A4.07,4.07,0,0,1,408.37,202.58Zm-1.07,6.74a3.47,3.47,0,0,0,.66-2.27,3.66,3.66,0,0,0-.66-2.34,2.17,2.17,0,0,0-1.82-.84,2.23,2.23,0,0,0-1.84.82,4.49,4.49,0,0,0,0,4.62,2.22,2.22,0,0,0,1.84.81A2.19,2.19,0,0,0,407.3,209.32Z" transform="translate(-239.36 -147.53)"/><path class="b" d="M412.4,199.86a1.28,1.28,0,0,1-.39-1,1.24,1.24,0,0,1,.39-.95,1.57,1.57,0,0,1,1.08-.36,1.55,1.55,0,0,1,1.06.36,1.21,1.21,0,0,1,.4.95,1.28,1.28,0,0,1-.39,1,1.54,1.54,0,0,1-1.07.36A1.57,1.57,0,0,1,412.4,199.86Zm.19,11.84a1.11,1.11,0,0,1-.34-.88v-7.66a1.09,1.09,0,0,1,.34-.87,1.31,1.31,0,0,1,.89-.3,1.35,1.35,0,0,1,.89.3,1.07,1.07,0,0,1,.36.87v7.66a1.09,1.09,0,0,1-.36.88,1.31,1.31,0,0,1-.89.31A1.27,1.27,0,0,1,412.59,211.7Z" transform="translate(-239.36 -147.53)"/><path class="b" d="M425.28,202.94a4.49,4.49,0,0,1,.86,3v4.88a1.15,1.15,0,0,1-.33.87,1.26,1.26,0,0,1-.91.32,1.29,1.29,0,0,1-.91-.32,1.15,1.15,0,0,1-.34-.87v-4.74a2.59,2.59,0,0,0-.42-1.65,1.66,1.66,0,0,0-1.34-.52,2.27,2.27,0,0,0-1.72.68,2.49,2.49,0,0,0-.64,1.8v4.43a1.15,1.15,0,0,1-.34.87,1.28,1.28,0,0,1-.91.32,1.26,1.26,0,0,1-.91-.32,1.18,1.18,0,0,1-.32-.87v-7.68a1.1,1.1,0,0,1,.33-.83,1.26,1.26,0,0,1,.92-.32,1.16,1.16,0,0,1,.84.31,1,1,0,0,1,.33.8v.54a3.27,3.27,0,0,1,1.33-1.25,3.87,3.87,0,0,1,1.88-.44A3.24,3.24,0,0,1,425.28,202.94Z" transform="translate(-239.36 -147.53)"/><path class="b" d="M436.64,209.49a1.05,1.05,0,0,1,.21.69,1.22,1.22,0,0,1-.74,1,7,7,0,0,1-3.15.83,5.05,5.05,0,0,1-3.71-1.35,5,5,0,0,1-1.37-3.69,5.64,5.64,0,0,1,.6-2.64,4.31,4.31,0,0,1,1.67-1.79,4.78,4.78,0,0,1,2.45-.63,4.45,4.45,0,0,1,2.29.57,3.94,3.94,0,0,1,1.5,1.63,5.37,5.37,0,0,1,.54,2.48c0,.57-.25.86-.76.86h-5.85a3.1,3.1,0,0,0,.78,2,2.58,2.58,0,0,0,1.9.64,3.8,3.8,0,0,0,1.12-.15c.32-.11.69-.26,1.1-.44a2.24,2.24,0,0,1,.88-.32A.67.67,0,0,1,436.64,209.49Zm-5.59-5.16a3,3,0,0,0-.73,1.83h4.49a2.87,2.87,0,0,0-.6-1.84,2,2,0,0,0-1.55-.62A2.12,2.12,0,0,0,431.05,204.33Z" transform="translate(-239.36 -147.53)"/><path class="b" d="M438.74,211.2a1.19,1.19,0,0,1-.64-1.08.92.92,0,0,1,.22-.64.66.66,0,0,1,.53-.25,2.24,2.24,0,0,1,.94.32A7.58,7.58,0,0,0,441,210a4.59,4.59,0,0,0,1.34.16,2.62,2.62,0,0,0,1.3-.27.87.87,0,0,0,.46-.78.72.72,0,0,0-.19-.53,1.57,1.57,0,0,0-.67-.37c-.32-.11-.82-.24-1.48-.39a5.54,5.54,0,0,1-2.53-1,2.26,2.26,0,0,1-.76-1.81,2.61,2.61,0,0,1,.51-1.57,3.33,3.33,0,0,1,1.42-1.09,5.15,5.15,0,0,1,2.06-.39,6.05,6.05,0,0,1,1.6.21,5,5,0,0,1,1.39.6,1.2,1.2,0,0,1,.64,1.05,1.06,1.06,0,0,1-.22.67.67.67,0,0,1-.54.27,1.06,1.06,0,0,1-.42-.09,5.37,5.37,0,0,1-.53-.27,7.88,7.88,0,0,0-1-.45,3.07,3.07,0,0,0-1-.15,2,2,0,0,0-1.16.3.94.94,0,0,0-.43.82.82.82,0,0,0,.44.75,6.56,6.56,0,0,0,1.68.52,9.4,9.4,0,0,1,2.09.63,2.52,2.52,0,0,1,1.08.89,2.6,2.6,0,0,1,.33,1.37,2.57,2.57,0,0,1-1.13,2.17,5,5,0,0,1-3,.81A6.44,6.44,0,0,1,438.74,211.2Z" transform="translate(-239.36 -147.53)"/><path class="b" d="M448.12,211.2a1.2,1.2,0,0,1-.63-1.08,1,1,0,0,1,.21-.64.69.69,0,0,1,.54-.25,2.21,2.21,0,0,1,.93.32,7.58,7.58,0,0,0,1.16.45,4.59,4.59,0,0,0,1.34.16,2.6,2.6,0,0,0,1.3-.27.88.88,0,0,0,.47-.78.72.72,0,0,0-.19-.53,1.64,1.64,0,0,0-.67-.37c-.33-.11-.82-.24-1.48-.39a5.54,5.54,0,0,1-2.53-1,2.26,2.26,0,0,1-.77-1.81,2.55,2.55,0,0,1,.52-1.57,3.21,3.21,0,0,1,1.42-1.09,5.1,5.1,0,0,1,2.05-.39,6.13,6.13,0,0,1,1.61.21,5.13,5.13,0,0,1,1.39.6,1.21,1.21,0,0,1,.63,1.05,1,1,0,0,1-.22.67.65.65,0,0,1-.53.27,1.07,1.07,0,0,1-.43-.09,5.38,5.38,0,0,1-.52-.27,8.63,8.63,0,0,0-1-.45,3,3,0,0,0-1-.15,2,2,0,0,0-1.16.3,1,1,0,0,0-.43.82.82.82,0,0,0,.44.75,6.54,6.54,0,0,0,1.69.52,9.29,9.29,0,0,1,2.08.63,2.52,2.52,0,0,1,1.08.89,2.6,2.6,0,0,1,.33,1.37,2.56,2.56,0,0,1-1.12,2.17,5,5,0,0,1-3,.81A6.46,6.46,0,0,1,448.12,211.2Z" transform="translate(-239.36 -147.53)"/><path class="b" d="M474.23,204.6a.91.91,0,0,1,.28.7v4.27a2.53,2.53,0,0,1-.24,1.29,1.7,1.7,0,0,1-1,.61,10.16,10.16,0,0,1-1.84.44,13.18,13.18,0,0,1-2,.16,7.92,7.92,0,0,1-3.75-.85,5.79,5.79,0,0,1-2.43-2.47,8.3,8.3,0,0,1-.84-3.86,8.16,8.16,0,0,1,.84-3.82,5.84,5.84,0,0,1,2.39-2.48,7.33,7.33,0,0,1,3.65-.87,6.91,6.91,0,0,1,4.59,1.51,1.63,1.63,0,0,1,.34.44,1,1,0,0,1,.11.51,1.15,1.15,0,0,1-.24.74.7.7,0,0,1-.57.29,1.25,1.25,0,0,1-.4-.06,2.54,2.54,0,0,1-.41-.23,6.71,6.71,0,0,0-1.63-.87,5.61,5.61,0,0,0-1.71-.24,4,4,0,0,0-3.26,1.28,5.65,5.65,0,0,0-1.1,3.8c0,3.44,1.5,5.15,4.52,5.15a10,10,0,0,0,2.7-.37v-3.51H470a1.09,1.09,0,0,1-.75-.24.87.87,0,0,1-.27-.68.85.85,0,0,1,.27-.67,1.09,1.09,0,0,1,.75-.24h3.51A1,1,0,0,1,474.23,204.6Z" transform="translate(-239.36 -147.53)"/><path class="b" d="M490.89,202.89a4.54,4.54,0,0,1,.84,3.05v4.88a1.11,1.11,0,0,1-.34.88,1.32,1.32,0,0,1-.91.31,1.26,1.26,0,0,1-.88-.31,1.12,1.12,0,0,1-.35-.88v-4.88a2.51,2.51,0,0,0-.38-1.56,1.47,1.47,0,0,0-1.19-.47,2,2,0,0,0-1.54.67,2.64,2.64,0,0,0-.58,1.81v4.43a1.08,1.08,0,0,1-.35.88,1.25,1.25,0,0,1-.88.31,1.29,1.29,0,0,1-.89-.31,1.09,1.09,0,0,1-.36-.88v-4.88a2.44,2.44,0,0,0-.39-1.56,1.44,1.44,0,0,0-1.18-.47,1.91,1.91,0,0,0-1.53.67,2.69,2.69,0,0,0-.57,1.81v4.43a1.09,1.09,0,0,1-.36.88,1.27,1.27,0,0,1-.89.31,1.25,1.25,0,0,1-.88-.31,1.12,1.12,0,0,1-.35-.88v-7.68a1,1,0,0,1,.36-.85,1.33,1.33,0,0,1,.89-.3,1.22,1.22,0,0,1,.84.29,1,1,0,0,1,.33.82v.48a3.08,3.08,0,0,1,1.22-1.21,3.61,3.61,0,0,1,1.76-.42,2.84,2.84,0,0,1,2.91,1.82,3.34,3.34,0,0,1,1.29-1.32,3.78,3.78,0,0,1,1.93-.5A3.08,3.08,0,0,1,490.89,202.89Z" transform="translate(-239.36 -147.53)"/><path class="b" d="M501.83,202.56a4.13,4.13,0,0,1,1.52,1.75,6,6,0,0,1,.55,2.64,6.27,6.27,0,0,1-.55,2.67,4.14,4.14,0,0,1-1.53,1.79,4,4,0,0,1-2.23.64,3.7,3.7,0,0,1-1.87-.46,3,3,0,0,1-1.26-1.27v.5a1.12,1.12,0,0,1-.34.85,1.26,1.26,0,0,1-.89.32,1.24,1.24,0,0,1-.89-.32,1.11,1.11,0,0,1-.32-.85V199a1.07,1.07,0,0,1,.34-.83,1.46,1.46,0,0,1,1.8,0,1,1,0,0,1,.34.81v4.69a2.89,2.89,0,0,1,1.25-1.22,3.82,3.82,0,0,1,1.84-.43A4.09,4.09,0,0,1,501.83,202.56Zm-1.07,6.73a3.66,3.66,0,0,0,.66-2.34,3.54,3.54,0,0,0-.65-2.28,2.49,2.49,0,0,0-3.67,0,3.59,3.59,0,0,0-.64,2.31,3.64,3.64,0,0,0,.64,2.32,2.21,2.21,0,0,0,1.84.81A2.16,2.16,0,0,0,500.76,209.29Z" transform="translate(-239.36 -147.53)"/><path class="b" d="M517.77,198.15a1.28,1.28,0,0,1,.33.92v11.65a1.29,1.29,0,0,1-.34.93,1.23,1.23,0,0,1-.91.36,1.2,1.2,0,0,1-.91-.36,1.33,1.33,0,0,1-.34-.93v-4.9h-7.16v4.9a1.29,1.29,0,0,1-.35.93,1.22,1.22,0,0,1-.92.36,1.19,1.19,0,0,1-.9-.36,1.29,1.29,0,0,1-.35-.93V199.07a1.25,1.25,0,0,1,.34-.92,1.21,1.21,0,0,1,.91-.35,1.2,1.2,0,0,1,1.27,1.27v4.68h7.16v-4.68a1.29,1.29,0,0,1,.34-.92,1.37,1.37,0,0,1,1.83,0Z" transform="translate(-239.36 -147.53)"/><circle class="c" cx="9.07" cy="9.07" r="9.07"/></svg>