<?xml version="1.0" encoding="utf-8"?>
<!-- Generator: Adobe Illustrator 25.2.0, SVG Export Plug-In . SVG Version: 6.00 Build 0)  -->
<svg version="1.1" id="Ebene_1" xmlns="http://www.w3.org/2000/svg" xmlns:xlink="http://www.w3.org/1999/xlink" x="0px" y="0px"
	 viewBox="0 0 404.6 188.1" style="enable-background:new 0 0 404.6 188.1;" xml:space="preserve">
<style type="text/css">
	.st0{fill:#8C9599;}
</style>
<path class="st0" d="M190.5,23.7C186.7,11.2,173.5,4.2,161.1,8S141.7,25,145.5,37.4s16.9,19.4,29.4,15.6c0,0,0,0,0,0
	C187.3,49.2,194.3,36.1,190.5,23.7L190.5,23.7z"/>
<path class="st0" d="M155.3,68.1c-11.1-3.8-23.2,2.2-26.9,13.3c0,0,0,0,0,0c-0.1,0.2-7.8,20.1-36.9,38.4
	c-28.5,17.9-51.7,18.6-58.6,18.3c-1.2,0-2.7-0.2-3.2-0.2c-11.8-0.7-21.9,8.2-22.6,20c-0.7,10.8,6.8,20.3,17.4,22.3
	c3.6,0.6,36.2,5.6,79.6-18.3c1.3-0.7,7.8-4.7,10-6.1c42-26.4,53.4-57.3,54.6-60.8C172.4,83.9,166.4,71.9,155.3,68.1
	C155.3,68.1,155.3,68.1,155.3,68.1L155.3,68.1z"/>
<path class="st0" d="M210.7,159v1.3h13.5l-13.7,19.2c-0.1,0.2-0.2,0.4-0.2,0.5v0.6h15.9v-1.3h-13.8l13.7-19.1
	c0.1-0.2,0.2-0.4,0.2-0.6V159L210.7,159z M235.7,179c-0.8-0.3-1.5-0.9-2.1-1.5c-0.6-0.7-1-1.4-1.3-2.3c-0.3-0.9-0.5-1.9-0.5-2.8V159
	h-1.6v13.4c0,1.1,0.2,2.3,0.6,3.3c0.4,1,0.9,1.9,1.6,2.7c0.7,0.8,1.6,1.4,2.6,1.8c2.2,0.9,4.6,0.9,6.8,0c1-0.4,1.9-1,2.6-1.8
	c0.7-0.8,1.3-1.7,1.6-2.7c0.4-1.1,0.6-2.2,0.6-3.3V159h-1.6v13.4c0,1-0.1,1.9-0.5,2.8c-0.3,0.8-0.7,1.6-1.3,2.3
	c-0.6,0.6-1.3,1.2-2.1,1.5c-0.9,0.4-1.8,0.6-2.8,0.5C237.6,179.5,236.6,179.4,235.7,179L235.7,179z M259.1,159v21.6h12.9v-1.3h-11.4
	v-9h9.5v-1.3h-9.5v-8.7h11.4V159L259.1,159z M281,170.9c0.3,0,0.6,0,0.9,0.1c0.2,0.1,0.4,0.3,0.6,0.5l6.9,8.8
	c0.1,0.1,0.2,0.2,0.3,0.3c0.1,0.1,0.3,0.1,0.4,0.1h1.4l-7.4-9.3c-0.2-0.2-0.4-0.4-0.7-0.6c0.9-0.1,1.7-0.3,2.5-0.6
	c0.7-0.3,1.4-0.7,1.9-1.3c0.5-0.5,0.9-1.1,1.2-1.8c0.3-0.7,0.4-1.5,0.4-2.3c0.1-1.6-0.6-3.2-1.8-4.2c-1.7-1.1-3.6-1.6-5.6-1.4h-5.5
	v21.6h1.6v-9.8L281,170.9z M278.2,160.3h4c1.5-0.1,3.1,0.3,4.4,1.1c1,0.8,1.6,2.1,1.5,3.4c0,0.7-0.1,1.4-0.4,2
	c-0.3,0.6-0.7,1.1-1.2,1.5c-0.6,0.5-1.2,0.8-1.9,1c-0.8,0.2-1.7,0.4-2.6,0.3h-3.8L278.2,160.3L278.2,160.3z M296.8,159h-1.6v21.6
	h11.8v-1.3h-10.2L296.8,159L296.8,159z M310.8,159v21.6h12.9v-1.3h-11.4v-9h9.5v-1.3h-9.5v-8.7h11.4V159L310.8,159z M335.1,180.6
	c1,0,2.1-0.1,3.1-0.4c0.8-0.2,1.6-0.6,2.3-1.2c0.6-0.5,1.1-1.1,1.4-1.9c0.3-0.8,0.5-1.6,0.5-2.5c0.1-1.3-0.4-2.6-1.4-3.5
	c-1.1-1-2.5-1.6-3.9-1.7c0.7-0.2,1.3-0.4,1.9-0.8c0.5-0.3,1-0.7,1.4-1.2c0.4-0.4,0.7-0.9,0.9-1.5c0.2-0.5,0.3-1.1,0.3-1.6
	c0-0.8-0.1-1.6-0.4-2.3c-0.3-0.7-0.7-1.3-1.3-1.7c-0.7-0.5-1.4-0.9-2.2-1.1c-1-0.3-2.1-0.4-3.2-0.4h-6.2v21.6L335.1,180.6z
	 M335.1,170.3c0.8,0,1.6,0.1,2.4,0.3c0.7,0.2,1.3,0.5,1.8,0.9c0.5,0.4,0.9,0.8,1.1,1.4c0.3,0.6,0.4,1.2,0.4,1.8
	c0.1,1.3-0.5,2.6-1.5,3.5c-1.2,0.9-2.8,1.3-4.3,1.2h-5.4v-9.1H335.1z M329.6,160.3h4.7c1.5-0.1,3,0.3,4.3,1.1c1,0.8,1.5,2,1.4,3.3
	c0,0.6-0.1,1.1-0.3,1.6c-0.2,0.5-0.6,1-1,1.4c-0.5,0.4-1.1,0.8-1.7,1c-0.8,0.3-1.7,0.4-2.6,0.4h-4.7L329.6,160.3L329.6,160.3z
	 M347.4,159v21.6h12.9v-1.3H349v-9h9.5v-1.3H349v-8.7h11.4V159L347.4,159z M365.5,159h-0.8v21.6h1.4v-18.2c0-0.3,0-0.6,0-0.9
	l14,18.7c0.1,0.2,0.3,0.3,0.6,0.3h0.7V159H380v18.1c0,0.3,0,0.6,0,0.9l-14-18.7c-0.1-0.1-0.2-0.2-0.3-0.2
	C365.7,159.1,365.6,159,365.5,159z"/>
<path class="st0" d="M215.6,149.2h1.4l6.4-18.7c0.1-0.3,0.2-0.5,0.2-0.8c0.1,0.3,0.1,0.5,0.2,0.8l6.4,18.7h1.4l6.8-21.6h-1.2
	c-0.1,0-0.3,0-0.4,0.1c-0.1,0.1-0.2,0.2-0.2,0.3l-5.4,17.8c-0.1,0.2-0.1,0.4-0.2,0.6c0,0.2-0.1,0.5-0.1,0.7
	c-0.1-0.3-0.1-0.5-0.2-0.7s-0.1-0.4-0.2-0.6l-6.1-17.8c0-0.1-0.1-0.2-0.2-0.3c-0.1-0.1-0.2-0.1-0.4-0.1h-0.4c-0.1,0-0.3,0-0.4,0.1
	c-0.1,0.1-0.2,0.2-0.2,0.3l-6.1,17.8c-0.1,0.2-0.1,0.4-0.2,0.7c-0.1,0.2-0.1,0.5-0.2,0.7c-0.1-0.3-0.1-0.5-0.1-0.7s-0.1-0.5-0.2-0.7
	l-5.4-17.8c-0.1-0.3-0.3-0.4-0.6-0.4h-1.3L215.6,149.2L215.6,149.2z M248.2,127.6h-1.6l-8.8,21.6h1.2c0.1,0,0.3,0,0.4-0.1
	c0.1-0.1,0.2-0.2,0.2-0.3l2.5-6.3h10.6l2.6,6.3c0,0.1,0.1,0.2,0.2,0.3c0.1,0.1,0.2,0.1,0.4,0.1h1.2L248.2,127.6L248.2,127.6z
	 M247,130.4c0.1-0.2,0.1-0.4,0.2-0.6c0.1-0.2,0.1-0.5,0.2-0.7c0.1,0.2,0.1,0.5,0.2,0.7s0.1,0.4,0.2,0.6l4.4,10.9h-9.7L247,130.4
	L247,130.4z M275.2,145.6c-0.1,0-0.1,0.1-0.1,0.1c-0.4,0.4-0.8,0.7-1.3,1c-0.4,0.3-0.9,0.5-1.4,0.7c-0.5,0.2-1.1,0.4-1.7,0.5
	c-0.7,0.1-1.4,0.2-2.1,0.2c-1.2,0-2.3-0.2-3.4-0.7c-1-0.4-2-1.1-2.7-1.9c-0.8-0.9-1.4-1.9-1.8-3c-0.5-1.3-0.7-2.7-0.7-4.1
	c0-1.4,0.2-2.7,0.7-4c0.4-1.1,1-2.2,1.9-3.1c0.8-0.8,1.8-1.5,2.8-1.9c1.1-0.5,2.4-0.7,3.6-0.7c0.6,0,1.3,0,1.9,0.2
	c0.5,0.1,1,0.2,1.5,0.4c0.4,0.1,0.8,0.3,1.1,0.5c0.3,0.2,0.6,0.4,0.8,0.5c0.2,0.2,0.4,0.3,0.5,0.4c0.1,0.1,0.2,0.1,0.4,0.2
	c0.2,0,0.3-0.1,0.4-0.2l0.5-0.7c-0.5-0.4-0.9-0.8-1.5-1.1c-0.5-0.3-1-0.6-1.6-0.8c-0.6-0.2-1.2-0.4-1.8-0.5
	c-0.7-0.1-1.4-0.2-2.2-0.2c-1.5,0-2.9,0.3-4.3,0.8c-1.3,0.5-2.4,1.3-3.3,2.3c-1,1-1.7,2.2-2.2,3.5c-0.5,1.4-0.8,3-0.8,4.5
	c0,1.5,0.2,3.1,0.7,4.6c0.5,1.3,1.2,2.5,2.1,3.5c0.9,1,2,1.7,3.2,2.2c1.3,0.5,2.7,0.8,4.1,0.8c0.8,0,1.7-0.1,2.5-0.2
	c0.7-0.1,1.4-0.3,2.1-0.6c0.6-0.3,1.2-0.6,1.7-1c0.5-0.4,1-0.8,1.5-1.3l-0.6-0.7c-0.1-0.1-0.2-0.1-0.3-0.1
	C275.3,145.5,275.2,145.5,275.2,145.6L275.2,145.6z M297.1,127.6h-1.6v10.1H282v-10.1h-1.6v21.6h1.6v-10.4h13.5v10.4h1.6V127.6z
	 M314.1,129.5c-0.7-0.7-1.5-1.3-2.4-1.6c-1-0.4-2-0.6-3-0.5c-0.9,0-1.8,0.1-2.7,0.5c-0.7,0.3-1.4,0.7-2,1.2
	c-0.5,0.5-0.9,1.1-1.2,1.8c-0.3,0.7-0.4,1.4-0.4,2.1c0,0.8,0.1,1.6,0.5,2.3c0.3,0.6,0.7,1.1,1.2,1.5c0.5,0.4,1.1,0.8,1.7,1
	c0.6,0.3,1.3,0.5,2,0.7c0.7,0.2,1.3,0.4,2,0.7c0.6,0.2,1.2,0.5,1.7,0.8c0.5,0.3,0.9,0.7,1.2,1.2c0.3,0.6,0.5,1.2,0.5,1.9
	c0,0.7-0.1,1.3-0.4,2c-0.2,0.6-0.6,1.1-1.1,1.6c-0.5,0.5-1.1,0.8-1.7,1.1c-0.7,0.3-1.5,0.4-2.3,0.4c-0.6,0-1.1-0.1-1.7-0.2
	c-0.4-0.1-0.9-0.3-1.3-0.4c-0.3-0.2-0.7-0.4-1-0.6c-0.3-0.2-0.5-0.4-0.7-0.6c-0.2-0.2-0.4-0.3-0.5-0.4c-0.1-0.1-0.2-0.2-0.4-0.2
	c-0.2,0-0.3,0.1-0.4,0.2l-0.4,0.7c0.8,0.9,1.7,1.6,2.7,2.1c1.2,0.5,2.4,0.8,3.7,0.8c1,0,2-0.2,2.9-0.5c0.8-0.3,1.5-0.8,2.2-1.4
	c0.6-0.6,1.1-1.3,1.4-2.1c0.3-0.8,0.5-1.7,0.5-2.6c0-0.8-0.1-1.5-0.5-2.2c-0.3-0.6-0.7-1.1-1.2-1.5c-0.5-0.4-1.1-0.8-1.7-1
	c-0.6-0.3-1.3-0.5-2-0.7c-0.7-0.2-1.3-0.4-2-0.7c-0.6-0.2-1.2-0.5-1.7-0.8c-0.5-0.3-0.9-0.7-1.2-1.2c-0.3-0.5-0.5-1.2-0.5-1.8
	c0-0.6,0.1-1.1,0.3-1.6c0.2-0.5,0.5-1,0.9-1.3c0.4-0.4,0.9-0.7,1.5-0.9c1.3-0.4,2.7-0.4,4.1,0c0.5,0.2,0.9,0.4,1.3,0.6
	c0.3,0.2,0.6,0.4,0.9,0.6c0.1,0.1,0.3,0.2,0.5,0.3c0.2,0,0.3-0.1,0.4-0.3L314.1,129.5L314.1,129.5z M317.1,127.6v1.3h7.6v20.3h1.6
	v-20.3h7.6v-1.3H317.1z M342.8,147.5c-0.8-0.3-1.5-0.9-2.1-1.5c-0.6-0.7-1-1.4-1.3-2.3c-0.3-0.9-0.5-1.9-0.5-2.8v-13.3h-1.6v13.4
	c0,1.1,0.2,2.3,0.6,3.3c0.4,1,0.9,1.9,1.6,2.7c0.7,0.8,1.6,1.4,2.6,1.8c2.2,0.9,4.6,0.9,6.8,0c1-0.4,1.9-1,2.6-1.8
	c0.7-0.8,1.3-1.7,1.6-2.7c0.4-1.1,0.6-2.2,0.6-3.3v-13.4h-1.6v13.4c0,1-0.1,1.9-0.5,2.8c-0.3,0.8-0.7,1.6-1.3,2.3
	c-0.6,0.6-1.3,1.2-2.1,1.5c-0.9,0.4-1.8,0.6-2.8,0.5C344.7,148.1,343.7,147.9,342.8,147.5L342.8,147.5z M370.2,142.9l-8.7-15
	c-0.1-0.1-0.1-0.2-0.3-0.2c-0.1,0-0.2,0-0.3,0h-1.1v21.6h1.4v-18.4c0-0.3,0-0.6,0-0.9l8.7,15.1c0.1,0.2,0.3,0.4,0.6,0.4h0.2
	c0.3,0,0.5-0.2,0.6-0.4l8.5-15.1c0,0.3,0,0.6,0,0.8v18.4h1.4v-21.6h-1.1c-0.1,0-0.2,0-0.3,0c-0.1,0.1-0.2,0.1-0.2,0.2l-8.5,15
	c-0.1,0.1-0.2,0.3-0.2,0.5c-0.1,0.2-0.1,0.3-0.2,0.5C370.5,143.5,370.4,143.2,370.2,142.9L370.2,142.9z"/>
<path class="st0" d="M217.7,117.7h1.4l8.9-21.6h-1.2c-0.1,0-0.3,0-0.4,0.1c-0.1,0.1-0.2,0.2-0.2,0.3l-7.3,17.9
	c-0.2,0.5-0.3,1-0.4,1.5c-0.1-0.5-0.3-1-0.5-1.5l-7.4-17.9c0-0.1-0.1-0.2-0.2-0.3c-0.1-0.1-0.2-0.1-0.4-0.1h-1.2L217.7,117.7
	L217.7,117.7z M248.9,102.3c-0.5-1.3-1.2-2.5-2.1-3.5c-0.9-1-2-1.7-3.3-2.2c-1.3-0.5-2.8-0.8-4.2-0.8c-1.4,0-2.8,0.3-4.2,0.8
	c-1.2,0.5-2.3,1.3-3.3,2.2c-0.9,1-1.7,2.2-2.1,3.5c-1,2.9-1,6.1,0,9.1c0.5,1.3,1.2,2.5,2.1,3.5c0.9,1,2,1.7,3.3,2.2
	c2.7,1,5.7,1,8.4,0c1.2-0.5,2.3-1.3,3.3-2.2c0.9-1,1.6-2.2,2.1-3.5C249.9,108.5,249.9,105.3,248.9,102.3z M247.4,110.9
	c-0.4,1.1-1,2.2-1.8,3c-0.8,0.8-1.7,1.5-2.7,1.9c-1.1,0.4-2.3,0.7-3.6,0.7c-1.2,0-2.4-0.2-3.5-0.7c-1-0.4-2-1.1-2.7-1.9
	c-0.8-0.9-1.4-1.9-1.8-3c-0.8-2.6-0.8-5.5,0-8.1c0.4-1.1,1-2.2,1.8-3.1c0.8-0.8,1.7-1.5,2.7-1.9c1.1-0.5,2.3-0.7,3.5-0.7
	c1.2,0,2.4,0.2,3.6,0.7c1,0.4,2,1.1,2.7,1.9c0.8,0.9,1.4,1.9,1.8,3.1C248.3,105.4,248.3,108.3,247.4,110.9z M264.8,111.4l-8.7-15
	c-0.1-0.1-0.1-0.2-0.3-0.2c-0.1,0-0.2,0-0.3,0h-1.1v21.6h1.4V99.3c0-0.3,0-0.6,0-0.9l8.7,15.1c0.1,0.2,0.3,0.4,0.6,0.4h0.2
	c0.3,0,0.5-0.2,0.6-0.4l8.5-15.1c0,0.3,0,0.6,0,0.8v18.4h1.4V96.1h-1.1c-0.1,0-0.2,0-0.3,0c-0.1,0.1-0.2,0.1-0.2,0.2l-8.5,15
	c-0.1,0.1-0.2,0.3-0.2,0.4c-0.1,0.2-0.1,0.3-0.2,0.5C265.1,112,265,111.7,264.8,111.4L264.8,111.4z M293.7,116
	c-1.1-0.4-2-1.1-2.8-1.9c-0.8-0.9-1.4-1.9-1.8-3.1c-0.5-1.3-0.7-2.7-0.7-4.1c0-1.4,0.2-2.7,0.6-4c0.4-1.1,1-2.2,1.8-3.1
	c0.8-0.8,1.8-1.5,2.9-1.9c1.2-0.5,2.5-0.7,3.8-0.7c0.9,0,1.8,0.1,2.7,0.3c0.6,0.2,1.3,0.4,1.9,0.7c0.4,0.2,0.8,0.4,1.2,0.7
	c0.2,0.2,0.4,0.3,0.7,0.4c0.1,0,0.2,0.1,0.3,0.1c0.2,0,0.3-0.1,0.4-0.2l0.4-0.7c-0.5-0.4-1-0.8-1.5-1.1c-0.5-0.3-1.1-0.6-1.7-0.8
	c-0.6-0.2-1.3-0.4-1.9-0.5c-0.8-0.1-1.5-0.2-2.3-0.2c-1.5,0-3.1,0.2-4.5,0.8c-1.3,0.5-2.4,1.2-3.4,2.2c-1,1-1.7,2.2-2.2,3.5
	c-1,2.9-1,6.1,0,9.1c0.5,1.3,1.2,2.5,2.1,3.5c0.9,1,2.1,1.7,3.3,2.2c1.4,0.5,2.8,0.8,4.3,0.8c0.8,0,1.7,0,2.5-0.2
	c0.7-0.1,1.4-0.3,2.1-0.5c0.6-0.2,1.3-0.4,1.9-0.7c0.6-0.3,1.1-0.6,1.7-1v-7.7h-6v0.9c0,0.1,0,0.2,0.1,0.2c0.1,0.1,0.2,0.1,0.3,0.1
	h4.2v5.8c-0.5,0.3-1,0.5-1.4,0.7c-0.5,0.2-1,0.4-1.5,0.6c-0.6,0.2-1.1,0.3-1.7,0.3c-0.7,0.1-1.4,0.1-2,0.1
	C296.1,116.7,294.9,116.4,293.7,116L293.7,116z M312.2,96.1h-1.6v21.6h11.8v-1.3h-10.2L312.2,96.1L312.2,96.1z M330,116
	c-0.8-0.3-1.5-0.9-2.1-1.5c-0.6-0.7-1-1.4-1.3-2.3c-0.3-0.9-0.5-1.9-0.5-2.8V96.1h-1.6v13.4c0,1.1,0.2,2.3,0.6,3.3
	c0.4,1,0.9,1.9,1.6,2.7c0.7,0.8,1.6,1.4,2.6,1.8c2.2,0.9,4.6,0.9,6.8,0c1-0.4,1.9-1,2.6-1.8c0.7-0.8,1.3-1.7,1.6-2.7
	c0.4-1.1,0.6-2.2,0.6-3.3V96.1h-1.6v13.4c0,1-0.1,1.9-0.5,2.8c-0.3,0.8-0.7,1.6-1.3,2.3c-0.6,0.6-1.3,1.2-2.1,1.5
	c-0.9,0.4-1.8,0.6-2.8,0.5C331.8,116.6,330.9,116.4,330,116L330,116z M330.7,91.8c-0.1-0.1-0.2-0.3-0.3-0.4
	c-0.1-0.1-0.2-0.2-0.4-0.3c-0.1-0.1-0.3-0.1-0.5-0.1c-0.2,0-0.3,0-0.5,0.1c-0.1,0.1-0.3,0.2-0.4,0.3c-0.1,0.1-0.2,0.3-0.3,0.4
	c-0.1,0.1-0.1,0.3-0.1,0.5c0,0.2,0,0.3,0.1,0.5c0.1,0.1,0.2,0.3,0.3,0.4c0.1,0.1,0.2,0.2,0.4,0.3c0.1,0.1,0.3,0.1,0.5,0.1
	c0.2,0,0.3,0,0.5-0.1c0.3-0.1,0.5-0.4,0.7-0.6c0.1-0.1,0.1-0.3,0.1-0.5C330.9,92.1,330.8,91.9,330.7,91.8z M337.1,91.8
	c-0.1-0.2-0.2-0.3-0.3-0.4c-0.1-0.1-0.2-0.2-0.4-0.3c-0.1-0.1-0.3-0.1-0.5-0.1c-0.3,0-0.6,0.1-0.9,0.4c-0.2,0.2-0.4,0.5-0.4,0.9
	c0,0.2,0,0.3,0.1,0.5c0.1,0.1,0.2,0.3,0.3,0.4c0.1,0.1,0.2,0.2,0.4,0.3c0.2,0.1,0.3,0.1,0.5,0.1c0.2,0,0.3,0,0.5-0.1
	c0.1-0.1,0.3-0.2,0.4-0.3c0.1-0.1,0.2-0.2,0.3-0.4c0.1-0.1,0.1-0.3,0.1-0.5C337.2,92.1,337.2,91.9,337.1,91.8z M362.4,114.1
	c-0.1,0-0.1,0.1-0.1,0.1c-0.4,0.4-0.8,0.7-1.3,1c-0.4,0.3-0.9,0.6-1.4,0.7c-0.5,0.2-1.1,0.4-1.7,0.5c-0.7,0.1-1.4,0.2-2.1,0.2
	c-1.2,0-2.3-0.2-3.4-0.7c-1-0.4-2-1.1-2.7-1.9c-0.8-0.9-1.4-1.9-1.8-3c-0.5-1.3-0.7-2.7-0.7-4.1c0-1.4,0.2-2.7,0.7-4
	c0.4-1.1,1-2.2,1.9-3.1c0.8-0.8,1.8-1.5,2.8-1.9c1.1-0.5,2.4-0.7,3.6-0.7c0.6,0,1.3,0,1.9,0.2c0.5,0.1,1,0.2,1.5,0.4
	c0.4,0.1,0.8,0.3,1.1,0.5c0.3,0.2,0.6,0.4,0.8,0.5c0.2,0.2,0.4,0.3,0.5,0.4c0.1,0.1,0.2,0.1,0.4,0.2c0.2,0,0.3-0.1,0.4-0.2l0.5-0.7
	c-0.5-0.4-0.9-0.8-1.5-1.1c-0.5-0.3-1-0.6-1.6-0.8c-0.6-0.2-1.2-0.4-1.8-0.5c-0.7-0.1-1.4-0.2-2.2-0.2c-1.5,0-2.9,0.3-4.3,0.8
	c-1.3,0.5-2.4,1.3-3.3,2.3c-1,1-1.7,2.2-2.2,3.5c-0.5,1.4-0.8,3-0.8,4.5c0,1.5,0.2,3.1,0.7,4.6c0.5,1.3,1.2,2.5,2.1,3.5
	c0.9,1,2,1.7,3.2,2.2c1.3,0.5,2.7,0.8,4.1,0.8c0.8,0,1.7-0.1,2.5-0.2c0.7-0.1,1.4-0.3,2.1-0.6c0.6-0.3,1.2-0.6,1.7-1
	c0.5-0.4,1-0.8,1.5-1.3l-0.6-0.7c-0.1-0.1-0.2-0.1-0.3-0.1C362.5,114,362.5,114.1,362.4,114.1L362.4,114.1z M369.3,96h-1.6v21.6h1.6
	v-10.4h1.4c0.2,0,0.4,0,0.6,0c0.1,0,0.3,0.1,0.4,0.1c0.1,0.1,0.2,0.1,0.3,0.2c0.1,0.1,0.2,0.2,0.3,0.3l9.1,9.3
	c0.1,0.1,0.2,0.2,0.4,0.3c0.2,0.1,0.4,0.1,0.6,0.1h1.3l-10-10.4c-0.2-0.2-0.3-0.4-0.5-0.5c-0.2-0.1-0.4-0.2-0.6-0.3
	c0.2-0.1,0.3-0.2,0.5-0.3c0.2-0.1,0.4-0.3,0.5-0.5l9.4-9.7h-1.3c-0.2,0-0.4,0-0.5,0.1c-0.2,0.1-0.3,0.2-0.5,0.3l-8.7,9
	c-0.1,0.1-0.2,0.2-0.3,0.3c-0.1,0.1-0.2,0.1-0.3,0.2c-0.1,0-0.3,0.1-0.4,0.1c-0.2,0-0.3,0-0.5,0h-1.3L369.3,96L369.3,96z"/>
<path class="st0" d="M225.9,63.6v9.7h-10.6v-9.7H211v22.6h4.2v-9.9h10.6v9.9h4.2V63.6H225.9z M240.7,77.6l2.7-7.5
	c0.1-0.3,0.3-0.7,0.4-1.2c0.1-0.5,0.3-1,0.4-1.5c0.1,0.5,0.3,1,0.4,1.5s0.3,0.9,0.4,1.2l2.8,7.5H240.7z M246.4,63.6h-4.3l-8.9,22.6
	h3.3c0.3,0,0.6-0.1,0.9-0.3c0.2-0.2,0.4-0.4,0.5-0.7l1.7-4.6h9.4l1.7,4.6c0.1,0.3,0.3,0.5,0.5,0.7c0.3,0.2,0.6,0.3,0.9,0.3h3.3
	L246.4,63.6L246.4,63.6z M262.6,74.9v-8.1h3.1c0.7,0,1.4,0.1,2,0.3c0.5,0.2,1,0.4,1.4,0.8c0.4,0.3,0.7,0.8,0.8,1.3
	c0.2,0.5,0.3,1.1,0.3,1.6c0,0.6-0.1,1.2-0.3,1.7c-0.2,0.5-0.5,0.9-0.9,1.3c-0.4,0.4-0.9,0.7-1.4,0.8c-0.7,0.2-1.3,0.3-2,0.3
	L262.6,74.9z M258.4,63.6v22.6h4.2v-8h3.1c1.3,0,2.6-0.2,3.9-0.5c1-0.3,1.9-0.8,2.7-1.5c0.7-0.6,1.3-1.5,1.6-2.4c0.4-1,0.6-2,0.5-3
	c0-1-0.2-2-0.5-2.9c-0.3-0.9-0.9-1.7-1.6-2.3c-0.8-0.7-1.7-1.2-2.7-1.5c-1.3-0.4-2.6-0.6-3.9-0.5H258.4z M282.4,74.9v-8.1h3.1
	c0.7,0,1.4,0.1,2,0.3c0.5,0.2,1,0.4,1.4,0.8c0.4,0.3,0.7,0.8,0.8,1.3c0.2,0.5,0.3,1.1,0.3,1.6c0,0.6-0.1,1.2-0.3,1.7
	c-0.2,0.5-0.5,0.9-0.9,1.3c-0.4,0.4-0.9,0.7-1.4,0.8c-0.7,0.2-1.3,0.3-2,0.3L282.4,74.9z M278.1,63.6v22.6h4.2v-8h3.1
	c1.3,0,2.6-0.2,3.9-0.5c1-0.3,1.9-0.8,2.7-1.5c0.7-0.6,1.3-1.5,1.6-2.4c0.4-1,0.6-2,0.5-3c0-1-0.2-2-0.5-2.9
	c-0.3-0.9-0.9-1.7-1.6-2.3c-0.8-0.7-1.7-1.2-2.7-1.5c-1.3-0.4-2.6-0.6-3.9-0.5H278.1z M302.2,63.6H298v22.6h4.2V63.6L302.2,63.6z
	 M323.3,63.6v13.8c0,0.3,0,0.6,0,1s0,0.7,0.1,1.1l-11.9-15.1c-0.1-0.1-0.2-0.2-0.3-0.4c-0.2-0.2-0.4-0.3-0.6-0.3c-0.2,0-0.3,0-0.5,0
	H308v22.6h3.7V72.3c0-0.6,0-1.2-0.1-1.9l11.8,15.1c0.2,0.2,0.4,0.4,0.6,0.6c0.3,0.1,0.5,0.2,0.8,0.2h2.2V63.6L323.3,63.6z
	 M347.1,66.9v-3.3h-14.3v22.6h14.3v-3.4h-10v-6.4h7.9v-3.2H337v-6.3L347.1,66.9z M364.8,65.7c-0.8-0.8-1.8-1.4-2.9-1.8
	c-1.2-0.4-2.4-0.6-3.7-0.6c-1.1,0-2.2,0.2-3.2,0.5c-0.9,0.3-1.6,0.8-2.3,1.5c-1.2,1.2-1.9,2.8-1.9,4.5c0,0.9,0.1,1.8,0.4,2.6
	c0.3,0.7,0.7,1.3,1.2,1.8c0.5,0.5,1.1,0.9,1.7,1.1c0.6,0.3,1.3,0.5,1.9,0.8c0.6,0.2,1.3,0.4,1.9,0.6c0.6,0.2,1.1,0.4,1.7,0.6
	c0.5,0.2,0.9,0.6,1.2,0.9c0.3,0.4,0.5,0.9,0.4,1.5c0.1,0.9-0.3,1.8-1,2.4c-0.8,0.6-1.8,0.9-2.8,0.9c-0.7,0-1.4-0.1-2-0.3
	c-0.5-0.2-1-0.4-1.5-0.7c-0.4-0.3-0.8-0.5-1.1-0.7c-0.2-0.2-0.5-0.3-0.8-0.3c-0.2,0-0.4,0.1-0.5,0.1c-0.2,0.1-0.3,0.2-0.4,0.4
	l-1.2,2c0.5,0.5,1,0.9,1.5,1.2c0.6,0.4,1.2,0.7,1.8,0.9c0.6,0.3,1.3,0.5,2,0.6c0.7,0.1,1.4,0.2,2.1,0.2c1.1,0,2.3-0.2,3.3-0.6
	c0.9-0.3,1.8-0.9,2.5-1.6c0.7-0.7,1.2-1.5,1.5-2.3c0.4-0.9,0.5-1.9,0.5-2.9c0-0.8-0.1-1.6-0.4-2.4c-0.3-0.6-0.7-1.2-1.2-1.7
	c-0.5-0.5-1.1-0.8-1.7-1.1c-0.6-0.3-1.3-0.6-1.9-0.8c-0.7-0.2-1.3-0.4-1.9-0.6c-0.6-0.2-1.1-0.4-1.7-0.7c-0.5-0.2-0.9-0.5-1.2-0.9
	c-0.3-0.4-0.5-0.8-0.4-1.3c0-0.4,0.1-0.8,0.2-1.2c0.1-0.3,0.4-0.7,0.7-0.9c0.3-0.3,0.7-0.5,1.1-0.6c0.5-0.1,1-0.2,1.5-0.2
	c0.6,0,1.1,0.1,1.7,0.2c0.4,0.1,0.8,0.3,1.2,0.5c0.4,0.2,0.7,0.4,0.9,0.5c0.2,0.1,0.5,0.2,0.7,0.2c0.2,0,0.4,0,0.5-0.1
	c0.2-0.1,0.3-0.3,0.4-0.5L364.8,65.7L364.8,65.7z M382.6,65.7c-0.8-0.8-1.8-1.4-2.9-1.8c-1.2-0.4-2.4-0.6-3.7-0.6
	c-1.1,0-2.2,0.2-3.2,0.5c-0.9,0.3-1.6,0.8-2.3,1.5c-1.2,1.2-1.9,2.8-1.9,4.5c0,0.9,0.1,1.8,0.4,2.6c0.3,0.7,0.7,1.3,1.2,1.8
	c0.5,0.5,1.1,0.9,1.7,1.1c0.6,0.3,1.3,0.5,1.9,0.8c0.6,0.2,1.3,0.4,1.9,0.6c0.6,0.2,1.1,0.4,1.7,0.6c0.5,0.2,0.9,0.6,1.2,0.9
	c0.3,0.4,0.5,0.9,0.4,1.5c0.1,0.9-0.3,1.8-1,2.4c-0.8,0.6-1.8,0.9-2.8,0.9c-0.7,0-1.4-0.1-2-0.3c-0.5-0.2-1-0.4-1.5-0.7
	c-0.4-0.3-0.8-0.5-1.1-0.7c-0.2-0.2-0.5-0.3-0.8-0.3c-0.2,0-0.4,0.1-0.5,0.1c-0.2,0.1-0.3,0.2-0.4,0.4l-1.2,2c0.5,0.5,1,0.9,1.5,1.2
	c0.6,0.4,1.2,0.7,1.8,0.9c0.7,0.3,1.3,0.5,2,0.6c0.7,0.1,1.4,0.2,2.1,0.2c1.1,0,2.3-0.2,3.3-0.6c0.9-0.3,1.8-0.9,2.5-1.6
	c0.7-0.7,1.2-1.5,1.5-2.3c0.4-0.9,0.5-1.9,0.5-2.9c0-0.8-0.1-1.6-0.4-2.4c-0.3-0.6-0.7-1.2-1.2-1.7c-0.5-0.5-1.1-0.8-1.7-1.1
	c-0.6-0.3-1.3-0.6-1.9-0.8c-0.7-0.2-1.3-0.4-1.9-0.6c-0.6-0.2-1.1-0.4-1.7-0.7c-0.5-0.2-0.9-0.5-1.2-0.9c-0.3-0.4-0.5-0.8-0.4-1.3
	c0-0.4,0.1-0.8,0.2-1.2c0.1-0.3,0.4-0.7,0.7-0.9c0.3-0.3,0.7-0.5,1.1-0.6c0.5-0.1,1-0.2,1.5-0.2c0.6,0,1.1,0.1,1.7,0.2
	c0.4,0.1,0.8,0.3,1.2,0.5c0.4,0.2,0.7,0.4,0.9,0.5c0.2,0.1,0.5,0.2,0.7,0.2c0.2,0,0.4,0,0.5-0.1c0.2-0.1,0.3-0.3,0.4-0.5L382.6,65.7
	L382.6,65.7z M390.6,66.2v-2.1h0.9c0.2,0,0.4,0,0.6,0.1c0.1,0,0.3,0.1,0.4,0.2c0.1,0.1,0.2,0.2,0.2,0.3c0,0.1,0.1,0.3,0,0.4
	c0,0.2,0,0.3-0.1,0.5c0,0.1-0.1,0.3-0.2,0.3c-0.1,0.1-0.3,0.2-0.4,0.2c-0.2,0.1-0.5,0.1-0.7,0.1L390.6,66.2z M388.8,62.7v7.4h1.8
	v-2.7h0.5c0.1,0,0.2,0,0.3,0.1c0.1,0,0.1,0.1,0.2,0.2l1.2,2.2c0.1,0.2,0.3,0.3,0.5,0.3h1.7l-1.5-2.5c-0.1-0.1-0.2-0.3-0.2-0.4
	c-0.1-0.1-0.2-0.2-0.3-0.3c0.5-0.1,0.9-0.4,1.2-0.8c0.3-0.4,0.4-0.8,0.4-1.3c0-0.6-0.2-1.2-0.7-1.6c-0.7-0.4-1.5-0.6-2.3-0.6
	L388.8,62.7z M389.6,71.2c-0.6-0.3-1.1-0.6-1.6-1.1c-0.5-0.5-0.8-1-1.1-1.6c-0.3-0.6-0.4-1.3-0.4-2c0-0.5,0.1-0.9,0.2-1.4
	c0.1-0.4,0.3-0.8,0.5-1.2c0.2-0.4,0.5-0.7,0.8-1c0.3-0.3,0.6-0.6,1-0.8c0.8-0.5,1.6-0.7,2.5-0.7c0.9,0,1.8,0.2,2.5,0.7
	c0.4,0.2,0.7,0.5,1,0.8c0.3,0.3,0.6,0.7,0.8,1c0.4,0.8,0.7,1.7,0.7,2.6c0,0.5-0.1,0.9-0.2,1.4c-0.1,0.4-0.3,0.8-0.5,1.2
	c-0.2,0.4-0.5,0.7-0.8,1c-0.6,0.6-1.4,1.1-2.2,1.3c-0.4,0.1-0.9,0.2-1.3,0.2C390.8,71.6,390.2,71.4,389.6,71.2L389.6,71.2z
	 M389.9,60.6c-1.5,0.4-2.8,1.4-3.6,2.8c-0.3,0.5-0.5,0.9-0.6,1.5c-0.3,1.1-0.3,2.2,0,3.2c0.6,2.1,2.2,3.7,4.2,4.2
	c1.1,0.3,2.2,0.3,3.2,0c0.5-0.1,1-0.3,1.5-0.6c1.4-0.8,2.4-2.1,2.8-3.6c0.3-1.1,0.3-2.2,0-3.2c-0.1-0.5-0.3-1-0.6-1.5
	c-0.5-0.9-1.3-1.7-2.2-2.2c-0.5-0.3-0.9-0.5-1.5-0.6C392.1,60.3,391,60.3,389.9,60.6L389.9,60.6z"/>
<path class="st0" d="M225.1,49.8c-0.1,0.1-0.2,0.1-0.3,0.2c-0.3,0.3-0.6,0.5-1,0.7c-0.3,0.2-0.7,0.4-1,0.5c-0.4,0.1-0.8,0.2-1.2,0.3
	c-0.5,0.1-1,0.1-1.5,0.1c-0.9,0-1.7-0.2-2.5-0.5c-0.8-0.3-1.5-0.8-2-1.5c-0.6-0.7-1.1-1.5-1.4-2.3c-0.4-1-0.5-2.1-0.5-3.2
	c0-1.1,0.1-2.1,0.5-3.2c0.3-0.9,0.7-1.7,1.3-2.3c0.6-0.6,1.3-1.1,2-1.5c0.8-0.3,1.7-0.5,2.6-0.5c0.5,0,1,0,1.5,0.1
	c0.4,0.1,0.8,0.2,1.1,0.3c0.3,0.1,0.6,0.2,0.8,0.4c0.2,0.1,0.5,0.3,0.6,0.4s0.4,0.2,0.5,0.3c0.1,0.1,0.3,0.1,0.5,0.1
	c0.2,0,0.4,0,0.5-0.1c0.1-0.1,0.2-0.2,0.3-0.3l1.3-1.8c-0.9-0.8-1.9-1.5-3.1-2c-1.3-0.5-2.7-0.8-4.1-0.8c-1.5,0-2.9,0.3-4.2,0.8
	c-1.2,0.5-2.4,1.3-3.3,2.2c-0.9,1-1.7,2.1-2.1,3.4c-0.5,1.4-0.8,2.9-0.8,4.4c0,1.5,0.2,2.9,0.7,4.3c0.4,1.3,1.1,2.4,2,3.4
	c0.9,1,2,1.7,3.2,2.2c1.3,0.6,2.8,0.8,4.2,0.8c1.5,0,3.1-0.2,4.5-0.8c1.2-0.6,2.3-1.4,3.2-2.4L226,50c-0.1-0.2-0.4-0.2-0.6-0.2
	C225.3,49.7,225.2,49.7,225.1,49.8L225.1,49.8z M249.4,41.2c-0.2-0.9-0.6-1.8-1-2.6c-0.4-0.8-1-1.5-1.6-2.2
	c-0.6-0.6-1.3-1.2-2.1-1.7c-0.8-0.5-1.7-0.8-2.6-1.1c-1-0.3-2-0.4-3-0.4c-1.5,0-3,0.3-4.4,0.8c-1.3,0.5-2.4,1.3-3.4,2.3
	c-1,1-1.7,2.2-2.2,3.4c-1,2.8-1,5.8,0,8.6c0.5,1.3,1.2,2.4,2.2,3.4c1,1,2.1,1.7,3.4,2.3c2.8,1.1,5.9,1.1,8.8,0
	c1.3-0.5,2.4-1.3,3.4-2.3c0.9-1,1.7-2.2,2.2-3.4c0.5-1.4,0.8-2.8,0.8-4.3C249.7,43.1,249.6,42.1,249.4,41.2L249.4,41.2z M245.2,47.2
	c-0.3,0.9-0.7,1.7-1.3,2.3c-0.6,0.6-1.3,1.1-2.1,1.5c-1.8,0.7-3.8,0.7-5.6,0c-0.8-0.3-1.5-0.8-2.1-1.5c-0.6-0.7-1.1-1.5-1.3-2.3
	c-0.6-2-0.6-4.2,0-6.2c0.3-0.9,0.7-1.7,1.3-2.3c0.6-0.6,1.3-1.2,2.1-1.5c1.8-0.7,3.8-0.7,5.6,0c0.8,0.3,1.5,0.8,2.1,1.5
	c0.6,0.7,1.1,1.5,1.3,2.3C245.9,43,245.9,45.2,245.2,47.2L245.2,47.2z M257,43.6v-7h2.5c1.1-0.1,2.3,0.2,3.2,0.9
	c0.7,0.6,1.1,1.5,1.1,2.5c0,0.5-0.1,1-0.3,1.5c-0.2,0.4-0.4,0.8-0.8,1.2c-0.4,0.3-0.9,0.6-1.4,0.8c-0.6,0.2-1.3,0.3-1.9,0.3
	L257,43.6z M264.3,46.9c-0.2-0.3-0.4-0.5-0.6-0.7c-0.2-0.2-0.4-0.4-0.7-0.5c0.7-0.2,1.4-0.5,2-0.9c0.6-0.4,1.1-0.8,1.5-1.4
	c0.4-0.5,0.7-1.1,0.9-1.7c0.5-1.5,0.4-3.1-0.2-4.5c-0.3-0.8-0.8-1.4-1.5-1.9c-0.8-0.6-1.6-1-2.5-1.2c-1.2-0.3-2.4-0.5-3.7-0.4h-6.5
	v21.2h3.9v-8.3h1.7c0.3,0,0.6,0,0.9,0.2c0.2,0.1,0.4,0.3,0.5,0.5l4.4,6.8c0.3,0.5,0.9,0.8,1.5,0.8h3.6L264.3,46.9L264.3,46.9z
	 M275.6,44.2v-7.6h2.9c0.6,0,1.3,0.1,1.9,0.3c0.5,0.1,0.9,0.4,1.3,0.7c0.4,0.3,0.6,0.7,0.8,1.2c0.2,0.5,0.3,1,0.3,1.5
	c0,0.6-0.1,1.1-0.3,1.6c-0.2,0.5-0.4,0.9-0.8,1.2c-0.4,0.4-0.8,0.6-1.3,0.8c-0.6,0.2-1.2,0.3-1.9,0.3L275.6,44.2z M271.7,33.5v21.2
	h3.9v-7.4h2.9c1.2,0,2.4-0.2,3.6-0.5c0.9-0.3,1.8-0.8,2.6-1.4c0.7-0.6,1.2-1.4,1.5-2.2c0.3-0.9,0.5-1.9,0.5-2.8
	c0-0.9-0.2-1.9-0.5-2.7c-0.3-0.8-0.8-1.6-1.5-2.1c-0.7-0.6-1.6-1.1-2.6-1.4c-1.2-0.4-2.4-0.5-3.7-0.5L271.7,33.5z M309.6,41.2
	c-0.2-0.9-0.6-1.8-1-2.6c-0.4-0.8-1-1.5-1.6-2.2c-0.6-0.6-1.3-1.2-2.1-1.7c-0.8-0.5-1.7-0.8-2.6-1.1c-1-0.3-2-0.4-3-0.4
	c-1.5,0-3,0.3-4.4,0.8c-1.3,0.5-2.4,1.3-3.4,2.3c-1,1-1.7,2.2-2.2,3.4c-1,2.8-1,5.8,0,8.6c0.5,1.3,1.2,2.4,2.2,3.4
	c1,1,2.1,1.7,3.4,2.3c2.8,1.1,5.9,1.1,8.8,0c1.3-0.5,2.4-1.3,3.4-2.3c0.9-1,1.7-2.2,2.2-3.4c0.5-1.4,0.8-2.8,0.8-4.3
	C309.9,43.1,309.8,42.1,309.6,41.2L309.6,41.2z M305.4,47.2c-0.3,0.9-0.7,1.7-1.3,2.3c-0.6,0.6-1.3,1.1-2.1,1.5
	c-1.8,0.7-3.8,0.7-5.6,0c-0.8-0.3-1.5-0.8-2.1-1.5c-0.6-0.7-1.1-1.5-1.3-2.3c-0.6-2-0.6-4.2,0-6.2c0.3-0.9,0.7-1.7,1.3-2.3
	c0.6-0.6,1.3-1.2,2.1-1.5c1.8-0.7,3.8-0.7,5.6,0c0.8,0.3,1.5,0.8,2.1,1.5c0.6,0.7,1.1,1.5,1.3,2.3C306.1,43,306.1,45.2,305.4,47.2
	L305.4,47.2z M317.2,43.6v-7h2.5c1.1-0.1,2.3,0.2,3.2,0.9c0.7,0.6,1.1,1.5,1.1,2.5c0,0.5-0.1,1-0.3,1.5c-0.2,0.4-0.4,0.8-0.8,1.2
	c-0.4,0.3-0.9,0.6-1.4,0.8c-0.6,0.2-1.3,0.3-1.9,0.3L317.2,43.6z M324.5,46.9c-0.2-0.3-0.4-0.5-0.6-0.7c-0.2-0.2-0.4-0.4-0.7-0.5
	c0.7-0.2,1.4-0.5,2-0.9c0.6-0.4,1.1-0.8,1.5-1.4c0.4-0.5,0.7-1.1,0.9-1.7c0.2-0.7,0.3-1.3,0.3-2c0-0.8-0.1-1.7-0.5-2.5
	c-0.3-0.8-0.8-1.4-1.5-1.9c-0.8-0.6-1.6-1-2.5-1.3c-1.2-0.3-2.4-0.5-3.7-0.4h-6.5v21.2h3.9v-8.3h1.7c0.3,0,0.6,0,0.9,0.2
	c0.2,0.1,0.4,0.3,0.5,0.5l4.4,6.8c0.3,0.5,0.9,0.8,1.5,0.8h3.6L324.5,46.9L324.5,46.9z M337.6,46.7l2.6-7c0.1-0.3,0.3-0.7,0.4-1.1
	c0.1-0.4,0.3-0.9,0.4-1.4c0.1,0.5,0.3,1,0.4,1.4c0.1,0.4,0.3,0.8,0.4,1.1l2.6,7L337.6,46.7z M343,33.5h-4l-8.3,21.2h3.1
	c0.3,0,0.6-0.1,0.8-0.3c0.2-0.2,0.4-0.4,0.5-0.6l1.6-4.3h8.8l1.6,4.3c0.1,0.2,0.3,0.5,0.5,0.6c0.2,0.2,0.5,0.3,0.8,0.3h3L343,33.5
	L343,33.5z M365.8,33.5h-16.7v3.2h6.4v17.9h3.9V36.8h6.4L365.8,33.5L365.8,33.5z M381.5,36.7v-3.1h-13.3v21.2h13.3v-3.1h-9.4v-6h7.4
	v-3h-7.4v-5.9L381.5,36.7z"/>
</svg>
