<?xml version="1.0" encoding="utf-8"?>
<!-- Generator: Adobe Illustrator 25.2.0, SVG Export Plug-In . SVG Version: 6.00 Build 0)  -->
<svg version="1.1" id="Ebene_1" xmlns="http://www.w3.org/2000/svg" xmlns:xlink="http://www.w3.org/1999/xlink" x="0px" y="0px"
	 viewBox="0 0 754.3 96.5" style="enable-background:new 0 0 754.3 96.5;" xml:space="preserve">
<style type="text/css">
	.st0{fill:#8C9599;}
</style>
<path class="st0" d="M5,21.3h12c19.9,0,31.2,10.9,31.2,29.1c0,19.3-11.7,29.1-31.2,29.1H5V21.3z M18.3,73.5c14,0,23-7.9,23-23.1
	c0-14.6-9-23.1-23-23.1h-6.6v46.2H18.3z"/>
<path class="st0" d="M65.1,60.6l-7,18.9h-6.8l21.8-58.3h6.8l21.8,58.3h-6.8l-7-18.9H65.1z M76.5,28.7l-9.3,26.1h18.7L76.5,28.7z"/>
<path class="st0" d="M110.2,65.3c1.6,4.5,5.1,9.1,12.7,9.1c6.2,0,10.6-3.6,10.6-9.7c0-14.6-27.3-10.8-27.3-29.6
	c0-8.3,6.3-14.9,16.7-14.9c7.3-0.2,14,4.3,16.5,11.2l-5.7,2.3c-1.3-2.9-4.5-7.3-10.9-7.3s-9.8,3.9-9.8,8.7
	c0,13.3,27.4,10.6,27.4,29.2c0,9.2-6.7,16.3-17.6,16.3c-11.3,0-16.4-7.2-18.2-12.8L110.2,65.3z"/>
<path class="st0" d="M169.1,21.3h6.7L208,67.6V21.3h6.7v58.3H208l-32.1-46.2v46.2h-6.7V21.3z"/>
<path class="st0" d="M226.6,21.3h27.6v6.2h-20.9v19.4h18.2v6.1h-18.2v20.6h21.8v6.1h-28.6V21.3z"/>
<path class="st0" d="M264.6,58.6V21.3h6.7v37.3c0,9.7,5.2,15.8,15,15.8s15.1-6.2,15.1-15.9V21.3h6.7v37.3c0,13.2-7.9,22.1-21.7,22.1
	C272.3,80.6,264.6,71.9,264.6,58.6z"/>
<path class="st0" d="M319.7,21.3h27.6v6.2h-20.9v19.4h18.2v6.1h-18.2v20.6h21.8v6.1h-28.6V21.3z"/>
<path class="st0" d="M390.8,57.3v22.2h-14.2V21.3h30.8V34h-16.6v10.7h14.5v12.7H390.8z"/>
<path class="st0" d="M414.5,57.1V21.3h14.2v35.9c0,6.3,3.8,10.2,10.2,10.2c6.4,0,10-3.9,10-10.3V21.3h14.2v35.8
	c0,13.7-8.9,23.5-24.3,23.5C423.2,80.5,414.5,71.1,414.5,57.1z M424.2,11.9c0-3.5,2.9-6.4,6.4-6.4c3.5,0,6.4,2.9,6.4,6.4
	c0,3.5-2.9,6.4-6.4,6.4C427.1,18.2,424.2,15.4,424.2,11.9z M441,11.9c0-3.5,2.9-6.4,6.4-6.4s6.4,2.9,6.4,6.4s-2.9,6.4-6.4,6.4
	S441,15.4,441,11.9z"/>
<path class="st0" d="M521.4,79.5h-14.2V56.7h-20.8v22.8h-14.2V21.3h14.2v22.6h20.8V21.3h14.2V79.5z"/>
<path class="st0" d="M561.8,54.6c0,0-0.1-0.2,13.4,25h-15.7L549.1,58h-4.3v21.6h-14.2V21.3h19c13.7,0,20.4,6.3,20.4,17.9
	C569.9,45.6,567.2,51.7,561.8,54.6z M544.8,33.5v12.6h4.2c3.9,0,6.3-2.4,6.3-6.4c0-3.8-1.8-6.2-7-6.2L544.8,33.5z"/>
<path class="st0" d="M579.7,79.5V21.3h31.1V34H594v9.7h14.3v12.7H594v10.4h17.5v12.7H579.7z"/>
<path class="st0" d="M632.8,43.8v35.7h-14V21.3h14.5l21.3,36.1V21.3h14v58.3h-14.2L632.8,43.8z"/>
<path class="st0" d="M711.2,17.5h12.1c1.7,0,3,1.3,3,3v58.1c0,1.7-1.3,3-3,3h-12.1c-1.7,0-3-1.3-3-3V20.5
	C708.2,18.9,709.6,17.5,711.2,17.5z"/>
<path class="st0" d="M749.3,43.5v12.1c0,1.7-1.3,3-3,3h-58.1c-1.7,0-3-1.3-3-3V43.5c0-1.7,1.3-3,3-3h58.1
	C748,40.5,749.3,41.9,749.3,43.5z"/>
</svg>
