<?xml version="1.0" encoding="utf-8"?>
<!-- Generator: Adobe Illustrator 25.2.0, SVG Export Plug-In . SVG Version: 6.00 Build 0)  -->
<svg version="1.1"
	 id="svg8" inkscape:version="1.0 (4035a4fb49, 2020-05-01)" sodipodi:docname="dr-oliver-haas5.svg" xmlns:cc="http://creativecommons.org/ns#" xmlns:dc="http://purl.org/dc/elements/1.1/" xmlns:inkscape="http://www.inkscape.org/namespaces/inkscape" xmlns:osb="http://www.openswatchbook.org/uri/2009/osb" xmlns:rdf="http://www.w3.org/1999/02/22-rdf-syntax-ns#" xmlns:sodipodi="http://sodipodi.sourceforge.net/DTD/sodipodi-0.dtd" xmlns:svg="http://www.w3.org/2000/svg"
	 xmlns="http://www.w3.org/2000/svg" xmlns:xlink="http://www.w3.org/1999/xlink" x="0px" y="0px" viewBox="0 0 1000.1 219"
	 style="enable-background:new 0 0 1000.1 219;" xml:space="preserve">
<style type="text/css">
	.st0{fill:#8C9599;}
</style>
<sodipodi:namedview  bordercolor="#666666" borderopacity="1" gridtolerance="10" guidetolerance="10" id="namedview88" inkscape:current-layer="svg8" inkscape:cx="879.26034" inkscape:cy="417.52446" inkscape:pageopacity="0" inkscape:pageshadow="2" inkscape:window-height="1018" inkscape:window-maximized="1" inkscape:window-width="1920" inkscape:window-x="0" inkscape:window-y="27" inkscape:zoom="0.38306678" objecttolerance="10" pagecolor="#ffffff" showgrid="false" width="298mm">
	</sodipodi:namedview>
<g id="layer1" transform="matrix(2.5220746,0,0,2.5220746,-95.571805,-318.22832)">
	<g id="text12">
		<g id="g1072">
			<path id="path1076" class="st0" d="M42.1,171.3h7.2c13.7,0,21.9-6.6,21.9-20.3c0-12.7-7.8-20.3-21.9-20.3h-7.2V171.3z M45,168.6
				v-35.1h5.5c10.8,0,17.6,6.6,17.6,17.6c0,11.5-6.8,17.6-17.6,17.6L45,168.6z"/>
			<path id="path1078" class="st0" d="M41.5,130.1v41.9h0.6h7.2c6.9,0,12.6-1.7,16.5-5.2c3.9-3.5,6-8.8,6-15.7
				c0-6.5-2-11.7-5.8-15.4c-3.8-3.6-9.5-5.6-16.6-5.6H41.5z M42.7,131.3h6.6c6.9,0,12.2,1.9,15.8,5.2c3.6,3.4,5.5,8.2,5.5,14.5
				c0,6.7-2,11.6-5.6,14.8c-3.6,3.2-8.9,4.9-15.6,4.9h-6.6V131.3z M44.4,132.8v36.4H45h5.5c5.5,0,10.1-1.5,13.3-4.6
				c3.2-3.1,5-7.7,5-13.6c0-5.6-1.8-10.2-5-13.3c-3.2-3.2-7.8-4.9-13.3-4.9H44.4z M45.7,134h4.8c5.3,0,9.5,1.6,12.4,4.5
				c2.9,2.9,4.6,7.1,4.6,12.5c0,5.6-1.7,9.8-4.6,12.7c-2.9,2.8-7.2,4.3-12.4,4.3h-4.8V134z"/>
		</g>
		<g id="g1080">
			<path id="path1084" class="st0" d="M90.1,140.4c-4.9,0-8.4,3.1-9.3,6.1v-5.4h-2.9v30.1h2.9v-15.9c0-6.3,2.1-12.1,9.3-12.1V140.4z
				"/>
			<path id="path1086" class="st0" d="M90.1,139.8c-4.2,0-7,2.3-8.6,4.9v-4.2h-4.2v31.4h4.2v-16.5c0-3.1,0.5-6,1.9-8.1
				c1.3-2.1,3.4-3.4,6.8-3.4h0.6v-4.1H90.1z M89.5,141.2v1.5c-3.4,0.2-5.8,1.6-7.2,3.9c-1.5,2.4-2.1,5.5-2.1,8.7v15.3h-1.7v-28.9
				h1.7v4.8l1.2,0.2C82.2,144.2,85.3,141.5,89.5,141.2L89.5,141.2z"/>
		</g>
		<g id="g1088">
			<path id="path1092" class="st0" d="M93.4,169.6c0,1.3,1.1,2.4,2.4,2.4s2.4-1.1,2.4-2.4c0-1.3-1.1-2.4-2.4-2.4
				S93.4,168.3,93.4,169.6z"/>
			<path id="path1094" class="st0" d="M95.9,166.5c-1.7,0-3.1,1.4-3.1,3.1c0,1.7,1.4,3.1,3.1,3.1s3.1-1.4,3.1-3.1
				C98.9,167.9,97.5,166.5,95.9,166.5z M95.9,167.8c1,0,1.8,0.8,1.8,1.8c0,1-0.8,1.8-1.8,1.8c-1,0-1.8-0.8-1.8-1.8
				C94,168.6,94.9,167.8,95.9,167.8z"/>
		</g>
		<g id="g1096">
			<path id="path1100" class="st0" d="M119.3,151c0,12.1,9,21.1,20.5,21.1c11.5,0,20.6-9.1,20.6-21.1c0-11.9-9-21.1-20.5-21.1
				C128.4,129.9,119.3,139,119.3,151L119.3,151z M122.4,151c0-10.4,7.6-18.3,17.5-18.3c9.8,0,17.5,7.8,17.5,18.3
				c0,10.6-7.7,18.3-17.5,18.3C130,169.3,122.4,161.5,122.4,151z"/>
			<path id="path1102" class="st0" d="M139.8,129.3c-11.8,0-21.2,9.4-21.2,21.7c0,12.4,9.3,21.7,21.1,21.7
				c11.8,0,21.2-9.4,21.2-21.7C161,138.8,151.6,129.3,139.8,129.3z M139.8,130.6c11.2,0,19.9,8.9,19.9,20.4c0,11.6-8.8,20.4-20,20.4
				c-11.1,0-19.8-8.6-19.8-20.4C119.9,139.3,128.7,130.6,139.8,130.6z M139.8,132.1c-10.2,0-18.1,8.2-18.1,18.9
				c0,10.9,7.9,18.9,18.1,18.9c10.1,0,18.1-8,18.1-18.9C157.9,140.2,149.9,132.1,139.8,132.1z M139.8,133.3
				c9.5,0,16.8,7.5,16.8,17.6c0,10.3-7.4,17.6-16.8,17.6c-9.5,0-16.8-7.4-16.8-17.6C123,140.8,130.3,133.3,139.8,133.3z"/>
		</g>
		<g id="g1104">
			<path id="path1108" class="st0" d="M167.1,171.3h2.9v-41.9h-2.9V171.3z"/>
			<path id="path1110" class="st0" d="M166.5,128.7v43.2h0.6h3.5v-43.2H166.5z M167.8,130h1.7v40.7h-1.7V130z"/>
		</g>
		<g id="g1112">
			<path id="path1116" class="st0" d="M178.7,171.3h2.9v-30.1h-2.9V171.3z M177.8,133.2c0,1.3,1,2.4,2.4,2.4c1.3,0,2.4-1,2.4-2.4
				c0-1.3-1-2.4-2.4-2.4C178.8,130.8,177.8,131.8,177.8,133.2z"/>
			<path id="path1118" class="st0" d="M180.2,130.2c-1.7,0-3,1.3-3,3s1.3,3,3,3s3-1.3,3-3C183.2,131.5,181.8,130.2,180.2,130.2z
				 M180.2,131.4c1,0,1.8,0.7,1.8,1.8c0,1-0.7,1.8-1.8,1.8s-1.8-0.7-1.8-1.8C178.4,132.2,179.2,131.4,180.2,131.4z M178.1,140.6
				v31.4h0.6h3.5v-31.4H178.1z M179.4,141.8h1.7v28.9h-1.7V141.8z"/>
		</g>
		<g id="g1120">
			<path id="path1124" class="st0" d="M201.5,171.3l12.1-30.1h-3.1L200,167.8l-10.4-26.6h-3.1l12.1,30.1H201.5z"/>
			<path id="path1126" class="st0" d="M185.5,140.6l12.6,31.4h3.9l0.2-0.4l12.4-31H210l-10,25.5l-10-25.5H185.5z M187.3,141.8h1.8
				l10.9,27.7l10.9-27.7h1.8l-11.6,28.9h-2.2L187.3,141.8z"/>
		</g>
		<g id="g1128">
			<path id="path1132" class="st0" d="M216.1,156.3c0,9.4,6.4,15.7,15.3,15.7c6.5,0,10.3-3.3,12.3-6.5l-1.9-1.3
				c-1.7,2.4-4.8,5.2-10.4,5.2c-7.2,0-12.3-4.6-12.3-12.6h25.6v-1.2c0-8.6-5.5-15.1-14.2-15.1C223,140.4,216.1,146.5,216.1,156.3z
				 M219.3,154.2c0.6-7.4,5.8-11.1,11.3-11.1c5.7,0,10.8,3.5,11.2,11.1H219.3z"/>
			<path id="path1134" class="st0" d="M230.6,139.8c-8,0-15.1,6.4-15.1,16.5c0,9.7,6.8,16.3,15.9,16.3c6.7,0,10.8-3.5,12.8-6.8
				l0.3-0.5l-2.9-2l-0.4,0.5c-1.7,2.3-4.5,4.9-9.9,4.9c-3.5,0-6.4-1.1-8.4-3.1c-1.9-1.9-3-4.7-3.2-8.3h25.5v-1.8
				c0-4.5-1.4-8.4-4-11.2C238.8,141.5,235.1,139.8,230.6,139.8L230.6,139.8z M230.6,141c4.2,0,7.5,1.5,9.9,4.1
				c2.3,2.6,3.7,6.2,3.7,10.4v0.6h-25.6v0.6c0,4.1,1.3,7.5,3.6,9.8c2.3,2.3,5.6,3.5,9.3,3.5c5.4,0,8.6-2.6,10.4-5l0.9,0.6
				c-2,2.9-5.4,5.8-11.3,5.8c-8.6,0-14.7-6-14.7-15.1C216.8,146.7,223.3,141,230.6,141z M230.6,142.5c-5.7,0-11.3,4-11.9,11.7
				l-0.1,0.7h0.7h23.1l0-0.7c-0.2-3.9-1.6-6.9-3.8-8.8C236.4,143.4,233.6,142.5,230.6,142.5L230.6,142.5z M230.6,143.7
				c2.7,0,5.3,0.8,7.2,2.6c1.8,1.6,2.9,4,3.2,7.3h-20.9C221,147,225.6,143.7,230.6,143.7z"/>
		</g>
		<g id="g1136">
			<path id="path1140" class="st0" d="M263.4,140.4c-4.9,0-8.4,3.1-9.3,6.1v-5.4h-2.9v30.1h2.9v-15.9c0-6.3,2.1-12.1,9.3-12.1V140.4
				z"/>
			<path id="path1142" class="st0" d="M263.4,139.8c-4.2,0-7.1,2.3-8.7,5v-4.2h-4.1v31.4h4.1v-16.5c0-3.1,0.5-6,1.9-8.1
				c1.3-2.1,3.4-3.4,6.8-3.4h0.6v-4.1L263.4,139.8z M262.8,141.2v1.5c-3.3,0.2-5.8,1.6-7.2,3.9c-1.5,2.4-2.1,5.5-2.1,8.7v15.3h-1.6
				v-28.9h1.6v4.8l1.2,0.2C255.5,144.2,258.6,141.5,262.8,141.2L262.8,141.2z"/>
		</g>
		<g id="g1144">
			<path id="path1148" class="st0" d="M284,171.3h6.4v-17.6h19.3v17.6h6.4v-40.6h-6.4v17.1h-19.3v-17.1H284V171.3z"/>
			<path id="path1150" class="st0" d="M283.4,130.1v41.9h0.6h7.1v-17.6h18v17.6h7.7v-41.9h-7.7v17.1h-18v-17.1H283.4z M284.6,131.3
				h5.2v17.1h20.5v-17.1h5.2v39.3h-5.2V153h-20.5v17.6h-5.2V131.3z"/>
		</g>
		<g id="g1152">
			<path id="path1156" class="st0" d="M322,161.9c0,6.1,5,10.1,11.4,10.1c3.8,0,6.2-1.3,7.8-3l0.5,2.3h5.5v-19.5
				c0-6.6-3.1-11.5-12.1-11.5c-5,0-9.1,1.9-11.5,3.5l2.4,4.4c2.2-1.2,5.1-2.4,8.5-2.4c4,0,6.4,2.1,6.4,5.6v2.8
				c-1.2-1-3.8-2.2-7.2-2.2C326.8,152,322,156.1,322,161.9L322,161.9z M328.4,161.8c0-3,2.6-5.2,6.4-5.2s6.4,2,6.4,5.2
				c0,3.1-2.7,5.2-6.4,5.2C331,167,328.4,164.8,328.4,161.8L328.4,161.8z"/>
			<path id="path1158" class="st0" d="M335.2,139.6c-5.2,0-9.4,2-11.9,3.6l-0.5,0.3l3,5.5l0.5-0.3c2.1-1.2,4.9-2.3,8.2-2.3
				c1.9,0,3.3,0.5,4.3,1.3c1,0.8,1.5,2,1.5,3.6v2.1c-1.5-1-3.5-2-6.6-2c-3.6,0-6.7,1.1-8.9,2.9s-3.5,4.6-3.5,7.7
				c0,3.2,1.4,5.9,3.5,7.8c2.2,1.9,5.2,2.9,8.5,2.9c3.4,0,5.7-1.1,7.4-2.6l0.4,1.9h6.6v-20.2c0-3.4-0.8-6.5-2.8-8.6
				S339.8,139.6,335.2,139.6L335.2,139.6z M335.2,140.9c4.4,0,7.2,1.2,8.9,3.1c1.8,1.9,2.5,4.6,2.5,7.8v18.9h-4.4l-0.7-3l-0.8,0.9
				c-1.5,1.6-3.7,2.8-7.3,2.8c-3.1,0-5.8-1-7.7-2.6c-1.9-1.7-3.1-4-3.1-6.9c0-2.8,1.1-5.1,3-6.7c1.9-1.6,4.7-2.6,8.1-2.6
				c3.3,0,5.9,1.2,6.8,2l1,0.9v-4.2c0-1.9-0.7-3.5-1.9-4.6c-1.3-1.1-3-1.6-5.1-1.6c-3.3,0-6,1.1-8.2,2.3l-1.9-3.4
				C326.9,142.5,330.6,140.9,335.2,140.9L335.2,140.9z M334.7,155.9c-2,0-3.8,0.6-5,1.6c-1.2,1-2,2.5-2,4.2c0,1.7,0.7,3.2,2,4.2
				c1.3,1,3,1.6,5.1,1.6c2,0,3.7-0.6,5-1.6c1.3-1,2-2.5,2-4.3c0-1.8-0.7-3.3-2-4.3C338.5,156.5,336.8,155.9,334.7,155.9L334.7,155.9
				z M334.7,157.2c1.8,0,3.3,0.5,4.3,1.3s1.6,1.9,1.6,3.3c0,1.4-0.6,2.5-1.6,3.3c-1,0.8-2.5,1.3-4.2,1.3c-1.8,0-3.3-0.5-4.3-1.3
				c-1-0.8-1.6-1.9-1.6-3.3c0-1.3,0.5-2.4,1.5-3.3C331.5,157.7,333,157.2,334.7,157.2L334.7,157.2z"/>
		</g>
		<g id="g1160">
			<path id="path1164" class="st0" d="M352.1,161.9c0,6.1,5,10.1,11.4,10.1c3.8,0,6.2-1.3,7.8-3l0.5,2.3h5.5v-19.5
				c0-6.6-3.1-11.5-12.1-11.5c-5,0-9.1,1.9-11.5,3.5l2.4,4.4c2.2-1.2,5.1-2.4,8.5-2.4c4,0,6.4,2.1,6.4,5.6v2.8
				c-1.2-1-3.8-2.2-7.2-2.2C356.8,152,352.1,156.1,352.1,161.9L352.1,161.9z M358.4,161.8c0-3,2.6-5.2,6.4-5.2s6.4,2,6.4,5.2
				c0,3.1-2.7,5.2-6.4,5.2C361,167,358.4,164.8,358.4,161.8L358.4,161.8z"/>
			<path id="path1166" class="st0" d="M365.3,139.6c-5.2,0-9.4,2-11.9,3.6l-0.5,0.3l3,5.5l0.5-0.3c2.1-1.2,4.9-2.3,8.2-2.3
				c1.9,0,3.3,0.5,4.3,1.3c1,0.8,1.5,2,1.5,3.6v2.1c-1.5-1-3.5-2-6.6-2c-3.6,0-6.7,1.1-8.9,2.9c-2.2,1.9-3.5,4.6-3.5,7.7
				c0,3.2,1.4,5.9,3.5,7.8c2.2,1.9,5.2,2.9,8.5,2.9c3.4,0,5.7-1.1,7.4-2.6l0.4,1.9h6.6v-20.2c0-3.4-0.8-6.5-2.8-8.6
				C373.1,140.9,369.9,139.6,365.3,139.6z M365.3,140.9c4.4,0,7.2,1.2,8.9,3.1c1.8,1.9,2.5,4.6,2.5,7.8v18.9h-4.4l-0.7-3l-0.8,0.9
				c-1.5,1.6-3.7,2.8-7.3,2.8c-3.1,0-5.8-1-7.7-2.6c-1.9-1.7-3.1-4-3.1-6.9c0-2.8,1.1-5.1,3-6.7c1.9-1.6,4.7-2.6,8.1-2.6
				c3.3,0,5.8,1.2,6.8,2l1,0.9v-4.2c0-1.9-0.7-3.5-1.9-4.6c-1.3-1.1-3-1.6-5.1-1.6c-3.3,0-6,1.1-8.2,2.3l-1.9-3.4
				C357,142.5,360.6,140.9,365.3,140.9L365.3,140.9z M364.8,155.9c-2,0-3.8,0.6-5,1.6c-1.2,1-2,2.5-2,4.2c0,1.7,0.7,3.2,2,4.2
				c1.3,1,3,1.6,5.1,1.6c2,0,3.7-0.6,5-1.6c1.3-1,2-2.5,2-4.3c0-1.8-0.7-3.3-2-4.3C368.6,156.5,366.8,155.9,364.8,155.9z
				 M364.8,157.2c1.8,0,3.3,0.5,4.3,1.3s1.6,1.9,1.6,3.3c0,1.4-0.6,2.5-1.6,3.3c-1,0.8-2.5,1.3-4.2,1.3c-1.8,0-3.3-0.5-4.3-1.3
				c-1-0.8-1.6-1.9-1.6-3.3c0-1.3,0.5-2.4,1.5-3.3C361.5,157.7,363,157.2,364.8,157.2L364.8,157.2z"/>
		</g>
		<g id="g1168">
			<path id="path1172" class="st0" d="M381.8,166c1.5,2.7,4.8,6,10.9,6c6.2,0,11-3.7,11-9.3c0-10.7-14.8-8.2-14.8-14
				c0-2.1,1.7-3.3,4.1-3.3c3.4,0,5,2,5.9,3.4l4.3-2.9c-1.2-2.3-4.2-5.6-9.9-5.6c-5.9,0-10.4,3.2-10.4,8.6c0,10.5,14.7,8.4,14.7,14.2
				c0,2.4-2,3.8-4.6,3.8c-3.8,0-5.9-1.9-7.2-3.9L381.8,166z"/>
			<path id="path1174" class="st0" d="M393.3,139.6c-3,0-5.8,0.8-7.8,2.4c-2,1.6-3.2,3.9-3.2,6.8c0,2.8,1,4.8,2.5,6.3
				c1.5,1.5,3.4,2.4,5.3,3.2c1.9,0.8,3.7,1.4,5,2.1c0.6,0.4,1.2,0.8,1.5,1.2c0.3,0.4,0.5,0.9,0.5,1.5c0,1-0.4,1.8-1.1,2.3
				c-0.7,0.5-1.7,0.8-2.9,0.8c-3.6,0-5.4-1.7-6.7-3.7l-0.4-0.5l-4.9,3.9l0.3,0.5c1.6,2.9,5.1,6.3,11.5,6.3c3.2,0,6.1-0.9,8.2-2.7
				c2.1-1.7,3.4-4.2,3.4-7.2c0-2.8-1-4.9-2.5-6.3c-1.5-1.5-3.4-2.4-5.3-3.1c-1.9-0.7-3.7-1.3-5-2c-0.6-0.4-1.2-0.7-1.5-1.2
				c-0.3-0.4-0.5-0.8-0.5-1.4c0-0.9,0.3-1.5,0.9-1.9c0.6-0.5,1.5-0.7,2.5-0.7c3.1,0,4.5,1.8,5.3,3.1l0.3,0.5l5.3-3.6l-0.2-0.5
				C402.5,143.1,399.2,139.6,393.3,139.6L393.3,139.6z M393.3,140.9c5.1,0,7.7,2.8,8.9,4.9l-3.3,2.2c-1-1.4-2.7-3.2-5.9-3.2
				c-1.3,0-2.4,0.3-3.3,1c-0.9,0.7-1.4,1.7-1.4,2.9c0,0.9,0.3,1.6,0.8,2.2c0.5,0.6,1.1,1.1,1.9,1.5c1.5,0.8,3.3,1.4,5.2,2.1
				c1.8,0.7,3.6,1.6,4.9,2.8c1.3,1.3,2.1,2.9,2.1,5.4c0,2.6-1.1,4.8-2.9,6.3c-1.8,1.5-4.4,2.4-7.4,2.4c-5.6,0-8.5-2.8-10-5.3l3-2.4
				c1.5,1.9,3.6,3.7,7.3,3.7c1.4,0,2.7-0.4,3.7-1.1c1-0.7,1.6-1.9,1.6-3.3c0-0.9-0.3-1.6-0.8-2.2c-0.5-0.6-1.1-1.1-1.9-1.5
				c-1.5-0.8-3.3-1.4-5.1-2.2c-1.8-0.7-3.6-1.6-4.9-2.9c-1.3-1.3-2.1-2.9-2.1-5.4c0-2.5,1-4.4,2.8-5.8
				C388.1,141.7,390.5,140.9,393.3,140.9L393.3,140.9z"/>
		</g>
	</g>
	<g id="text906">
		<path id="path1021" class="st0" d="M55.9,190c0-1.4-0.1-1.8-0.5-2.7c-1.1-2.3-3.5-3.6-6.9-3.6c-4.5,0-7.2,2.3-7.2,6
			c0,2.5,1.3,4,4,4.7l5,1.3c2.6,0.7,3.7,1.7,3.7,3.3c0,1.1-0.6,2.2-1.4,2.8c-0.8,0.6-2.1,0.9-3.7,0.9c-2.2,0-3.7-0.5-4.7-1.7
			c-0.8-0.9-1.1-1.9-1.1-3.1h-2.5c0,1.9,0.4,3.1,1.2,4.2c1.4,1.9,3.7,2.9,6.8,2.9c2.4,0,4.4-0.6,5.7-1.6c1.4-1.1,2.2-2.9,2.2-4.7
			c0-2.5-1.6-4.3-4.3-5.1l-5.1-1.4c-2.5-0.7-3.3-1.4-3.3-3c0-2.1,1.8-3.4,4.5-3.4c3.2,0,5,1.4,5.1,4.1L55.9,190z"/>
		<path id="path1023" class="st0" d="M59.4,210.5h2.3v-7.6c1.2,1.5,2.6,2.2,4.5,2.2c3.8,0,6.2-3,6.2-7.7c0-4.9-2.4-8-6.3-8
			c-2,0-3.6,0.9-4.7,2.6v-2.2h-2.1L59.4,210.5z M65.8,191.5c2.6,0,4.2,2.3,4.2,5.7c0,3.3-1.7,5.6-4.2,5.6c-2.5,0-4.1-2.2-4.1-5.7
			C61.7,193.8,63.3,191.5,65.8,191.5L65.8,191.5z"/>
		<path id="path1025" class="st0" d="M87.6,197.9c0-2.2-0.2-3.6-0.6-4.7c-0.9-2.4-3.2-3.8-5.9-3.8c-4.1,0-6.7,3.1-6.7,7.9
			c0,4.8,2.5,7.7,6.6,7.7c3.3,0,5.7-1.9,6.2-5.1H85c-0.6,1.9-2,2.9-3.8,2.9c-1.5,0-2.7-0.7-3.5-1.9c-0.6-0.8-0.8-1.7-0.8-3.1H87.6z
			 M76.9,196c0.2-2.7,1.8-4.5,4.2-4.5c2.4,0,4,1.8,4,4.5H76.9z"/>
		<path id="path1027" class="st0" d="M103.6,203c-0.3,0.1-0.4,0.1-0.5,0.1c-0.8,0-1.3-0.4-1.3-1.1v-8.6c0-2.6-1.9-4-5.5-4
			c-2.1,0-3.8,0.6-4.8,1.7c-0.7,0.8-0.9,1.6-1,3h2.3c0.2-1.8,1.3-2.6,3.4-2.6c2.1,0,3.3,0.8,3.3,2.2v0.6c0,1-0.5,1.4-2.4,1.6
			c-3.3,0.4-3.8,0.5-4.7,0.9c-1.7,0.7-2.6,2-2.6,3.9c0,2.6,1.8,4.3,4.8,4.3c1.8,0,3.3-0.6,5-2.1c0.2,1.5,0.9,2.1,2.4,2.1
			c0.5,0,0.8-0.1,1.6-0.3L103.6,203z M99.5,199.8c0,0.8-0.2,1.3-0.9,1.9c-0.9,0.9-2.1,1.3-3.5,1.3c-1.8,0-2.9-0.9-2.9-2.3
			c0-1.5,1-2.3,3.5-2.7c2.5-0.3,3-0.4,3.7-0.8V199.8z"/>
		<path id="path1029" class="st0" d="M108.1,184.1h-2.3v20.3h2.3v-5.7l2.3-2.2l4.9,7.9h2.9l-6-9.6l5.1-5h-3l-6.2,6.2L108.1,184.1z"
			/>
		<path id="path1031" class="st0" d="M131.8,197.9c0-2.2-0.2-3.6-0.6-4.7c-0.9-2.4-3.2-3.8-5.9-3.8c-4.1,0-6.7,3.1-6.7,7.9
			c0,4.8,2.5,7.7,6.6,7.7c3.3,0,5.7-1.9,6.2-5.1h-2.3c-0.6,1.9-2,2.9-3.8,2.9c-1.5,0-2.7-0.7-3.5-1.9c-0.6-0.8-0.8-1.7-0.8-3.1
			H131.8z M121.1,196c0.2-2.7,1.8-4.5,4.2-4.5c2.4,0,4,1.8,4,4.5H121.1z"/>
		<path id="path1033" class="st0" d="M134.9,189.8v14.6h2.3v-7.6c0-3.5,1.5-5.1,4.7-5v-2.4c-0.4-0.1-0.6-0.1-0.9-0.1
			c-1.5,0-2.6,0.9-4,3.1v-2.6L134.9,189.8z"/>
		<path id="path1035" class="st0" d="M165.6,195.7h-15.8v2h15.8V195.7z"/>
		<path id="path1037" class="st0" d="M188.6,184.1v14.3c0,2.7-2,4.4-5.2,4.4c-1.5,0-2.7-0.4-3.7-1.1c-1-0.8-1.5-1.8-1.5-3.3v-14.3
			h-2.6v14.3c0,4.1,3,6.7,7.8,6.7c4.8,0,7.8-2.6,7.8-6.7v-14.3L188.6,184.1z"/>
		<path id="path1039" class="st0" d="M195.1,189.8v14.6h2.3v-8.1c0-3,1.6-4.9,4-4.9c1.8,0,3,1.1,3,2.9v10.1h2.3v-11
			c0-2.4-1.8-4-4.6-4c-2.2,0-3.6,0.8-4.8,2.9v-2.5H195.1z"/>
		<path id="path1041" class="st0" d="M215.8,189.8h-2.4v-4h-2.3v4h-2v1.9h2v11c0,1.5,1,2.3,2.8,2.3c0.6,0,1.1-0.1,1.9-0.2v-2
			c-0.3,0.1-0.6,0.1-1.1,0.1c-1,0-1.3-0.3-1.3-1.3v-10h2.4L215.8,189.8z"/>
		<path id="path1043" class="st0" d="M230.3,197.9c0-2.2-0.2-3.6-0.6-4.7c-0.9-2.4-3.2-3.8-5.9-3.8c-4.1,0-6.7,3.1-6.7,7.9
			c0,4.8,2.5,7.7,6.6,7.7c3.3,0,5.7-1.9,6.2-5.1h-2.3c-0.6,1.9-2,2.9-3.8,2.9c-1.5,0-2.7-0.7-3.5-1.9c-0.6-0.8-0.8-1.7-0.8-3.1
			H230.3z M219.6,196c0.2-2.7,1.8-4.5,4.2-4.5c2.4,0,4,1.8,4,4.5H219.6z"/>
		<path id="path1045" class="st0" d="M233.5,189.8v14.6h2.3v-7.6c0-3.5,1.5-5.1,4.7-5v-2.4c-0.4-0.1-0.6-0.1-0.9-0.1
			c-1.5,0-2.6,0.9-4,3.1v-2.6L233.5,189.8z"/>
		<path id="path1047" class="st0" d="M242.8,189.8v14.6h2.3v-8.1c0-3,1.6-4.9,4-4.9c1.8,0,3,1.1,3,2.9v10.1h2.3v-11
			c0-2.4-1.8-4-4.6-4c-2.2,0-3.6,0.8-4.8,2.9v-2.5H242.8z"/>
		<path id="path1049" class="st0" d="M270.6,197.9c0-2.2-0.2-3.6-0.6-4.7c-0.9-2.4-3.2-3.8-5.9-3.8c-4.1,0-6.7,3.1-6.7,7.9
			c0,4.8,2.5,7.7,6.6,7.7c3.3,0,5.7-1.9,6.2-5.1H268c-0.6,1.9-2,2.9-3.8,2.9c-1.5,0-2.7-0.7-3.5-1.9c-0.6-0.8-0.8-1.7-0.8-3.1H270.6
			z M259.9,196c0.2-2.7,1.8-4.5,4.2-4.5c2.4,0,4,1.8,4,4.5H259.9z"/>
		<path id="path1051" class="st0" d="M273.6,184.1v20.3h2.3v-8.1c0-3,1.6-4.9,4-4.9c0.8,0,1.5,0.2,2.1,0.6c0.7,0.5,0.9,1.2,0.9,2.2
			v10.1h2.3v-11c0-2.5-1.8-4-4.6-4c-2.1,0-3.3,0.6-4.7,2.4v-7.7H273.6z"/>
		<path id="path1053" class="st0" d="M289.1,189.8v14.6h2.3v-9.2c0-2.1,1.5-3.8,3.4-3.8c1.7,0,2.7,1.1,2.7,2.9v10.1h2.3v-9.2
			c0-2.1,1.5-3.8,3.4-3.8c1.7,0,2.7,1.1,2.7,2.9v10.1h2.3v-11c0-2.6-1.5-4.1-4.2-4.1c-2,0-3.1,0.6-4.5,2.2c-0.9-1.6-2-2.2-3.9-2.2
			c-2,0-3.3,0.7-4.5,2.5v-2.1L289.1,189.8z"/>
		<path id="path1055" class="st0" d="M324.7,197.9c0-2.2-0.2-3.6-0.6-4.7c-0.9-2.4-3.2-3.8-5.9-3.8c-4.1,0-6.7,3.1-6.7,7.9
			c0,4.8,2.5,7.7,6.6,7.7c3.3,0,5.7-1.9,6.2-5.1H322c-0.6,1.9-2,2.9-3.8,2.9c-1.5,0-2.7-0.7-3.5-1.9c-0.6-0.8-0.8-1.7-0.8-3.1H324.7
			z M314,196c0.2-2.7,1.8-4.5,4.2-4.5c2.4,0,4,1.8,4,4.5H314z"/>
		<path id="path1057" class="st0" d="M327.8,189.8v14.6h2.3v-7.6c0-3.5,1.5-5.1,4.7-5v-2.4c-0.4-0.1-0.6-0.1-0.9-0.1
			c-1.5,0-2.6,0.9-4,3.1v-2.6L327.8,189.8z"/>
		<path id="path1059" class="st0" d="M358.5,195.7h-15.8v2h15.8V195.7z"/>
		<path id="path1061" class="st0" d="M379.3,198.3l2.1,6.1h2.9l-7.1-20.3h-3.3l-7.2,20.3h2.8l2.1-6.1H379.3z M378.6,196.1h-6.5
			l3.3-9.3L378.6,196.1z"/>
		<path id="path1063" class="st0" d="M397.8,204.4v-14.6h-2.3v8.3c0,3-1.6,4.9-4,4.9c-1.8,0-3-1.1-3-2.9v-10.3h-2.3V201
			c0,2.4,1.8,4,4.7,4c2.1,0,3.5-0.8,4.9-2.7v2H397.8z"/>
		<path id="path1065" class="st0" d="M407,189.8h-2.4v-4h-2.3v4h-2v1.9h2v11c0,1.5,1,2.3,2.8,2.3c0.6,0,1.1-0.1,1.9-0.2v-2
			c-0.3,0.1-0.6,0.1-1.1,0.1c-1,0-1.3-0.3-1.3-1.3v-10h2.4V189.8z"/>
		<path id="path1067" class="st0" d="M414.9,189.4c-4.1,0-6.6,2.9-6.6,7.8c0,4.9,2.5,7.8,6.6,7.8c4.1,0,6.6-2.9,6.6-7.7
			C421.5,192.2,419.1,189.4,414.9,189.4L414.9,189.4z M414.9,191.5c2.6,0,4.2,2.1,4.2,5.8c0,3.5-1.6,5.6-4.2,5.6
			c-2.6,0-4.2-2.1-4.2-5.7S412.3,191.5,414.9,191.5z"/>
		<path id="path1069" class="st0" d="M424.7,189.8v14.6h2.3v-7.6c0-3.5,1.5-5.1,4.7-5v-2.4c-0.4-0.1-0.6-0.1-0.9-0.1
			c-1.5,0-2.6,0.9-4,3.1v-2.6L424.7,189.8z"/>
	</g>
</g>
</svg>
