<svg xmlns="http://www.w3.org/2000/svg" viewBox="0 0 716.5 716.4"><defs><style>.a{fill:#919191;}.b{fill:#cf6035;}.c{fill:#2383a5;}.d{fill:#efd84e;}.e{fill:#009b72;}</style></defs><path class="a" d="M725.8,209.1c6.3,6.3,12.4,12.8,18.2,19.6L530.6,412.3q-1.8-2.1-3.9-4.2Z" transform="translate(-114.2 -104.2)"/><path class="b" d="M744,228.7a358.5,358.5,0,0,1,86.5,247.1L549.2,465.2a76.3,76.3,0,0,0-18.6-52.9Z" transform="translate(-114.2 -104.2)"/><path class="c" d="M830.5,475.8A358.3,358.3,0,0,1,552.2,811.6L489.6,537.2a76.9,76.9,0,0,0,59.6-72Z" transform="translate(-114.2 -104.2)"/><path class="d" d="M552.2,811.6a357.4,357.4,0,0,1-159.4,0l62.6-274.4a78.9,78.9,0,0,0,34.2,0Z" transform="translate(-114.2 -104.2)"/><path class="e" d="M392.8,811.6C210,769.9,90.3,594.3,118.3,409l278.3,41.9a76.9,76.9,0,0,0,58.8,86.3Z" transform="translate(-114.2 -104.2)"/><path class="b" d="M118.3,409c1.3-8.8,3-17.6,5-26.3l274.4,62.6c-.4,1.9-.8,3.7-1.1,5.6Z" transform="translate(-114.2 -104.2)"/><path class="a" d="M123.3,382.7a358.3,358.3,0,0,1,95.9-173.6l199,199a76.6,76.6,0,0,0-20.5,37.2Z" transform="translate(-114.2 -104.2)"/><path class="b" d="M219.2,209.1a358.4,358.4,0,0,1,85.9-63.4L436.6,394.5a81.2,81.2,0,0,0-18.4,13.6Z" transform="translate(-114.2 -104.2)"/><path class="c" d="M305.1,145.7a359,359,0,0,1,207.5-39.3L481.1,386.1a77.3,77.3,0,0,0-44.5,8.4Z" transform="translate(-114.2 -104.2)"/><path class="d" d="M512.6,106.4a360.1,360.1,0,0,1,115.3,33.2L505.8,393.2a78.7,78.7,0,0,0-24.7-7.1Z" transform="translate(-114.2 -104.2)"/><path class="e" d="M627.9,139.6a358.8,358.8,0,0,1,97.9,69.5l-199.1,199a78.9,78.9,0,0,0-20.9-14.9Z" transform="translate(-114.2 -104.2)"/></svg>